<?xml version="1.0" encoding="UTF-8"?>
<svg id="Layer_1" data-name="Layer 1" xmlns="http://www.w3.org/2000/svg" xmlns:xlink="http://www.w3.org/1999/xlink" viewBox="0 0 612 792">
  <defs>
    <style>
      .cls-1 {
        fill: #fff;
      }

      .cls-2 {
        fill: #a7a9ac;
      }

      .cls-3 {
        fill: #939598;
      }

      .cls-4 {
        opacity: .35;
      }

      .cls-5 {
        fill: #f7bf16;
      }

      .cls-6 {
        fill: #6d6e71;
      }

      .cls-7 {
        clip-path: url(#clippath);
      }

      .cls-8 {
        fill: #808285;
      }

      .cls-9 {
        fill: #b30039;
      }

      .cls-10, .cls-11 {
        fill: none;
      }

      .cls-11 {
        stroke: #fff;
        stroke-miterlimit: 10;
        stroke-width: 2.24px;
      }

      .cls-12 {
        fill: #bcbec0;
      }

      .cls-13 {
        fill: #231f20;
      }

      .cls-14 {
        fill: #58595b;
      }

      .cls-15 {
        fill: #414042;
      }
    </style>
    <clipPath id="clippath">
      <path class="cls-10" d="m115.53,393.61h-38.23c-20.28,0-36.71-16.44-36.71-36.71V64.64c0-20.28,16.44-36.71,36.71-36.71h38.23c20.28,0,36.71,16.44,36.71,36.71v292.25c0,20.28-16.44,36.71-36.71,36.71Zm176.04-36.71V64.64c0-20.28-16.44-36.71-36.71-36.71h-38.23c-20.28,0-36.71,16.44-36.71,36.71v292.25c0,20.28,16.44,36.71,36.71,36.71h38.23c20.28,0,36.71-16.44,36.71-36.71Zm139.33,0V64.64c0-20.28-16.44-36.71-36.71-36.71h-38.23c-20.28,0-36.71,16.44-36.71,36.71v292.25c0,20.28,16.44,36.71,36.71,36.71h38.23c20.28,0,36.71-16.44,36.71-36.71Zm139.33,0V64.64c0-20.28-16.44-36.71-36.71-36.71h-38.23c-20.28,0-36.71,16.44-36.71,36.71v292.25c0,20.28,16.44,36.71,36.71,36.71h38.23c20.28,0,36.71-16.44,36.71-36.71Z"/>
    </clipPath>
  </defs>
  <rect class="cls-9" x="-8.01" y="-27.05" width="628.28" height="837.17"/>
  <g>
    <g class="cls-4">
      <path class="cls-13" d="m274.77,486.06c-22.29-12.04-50.75-11.89-69.97-28.4-5.63-4.84-10.5-11.11-17.59-13.32-3.95-1.23-8.22-1.05-12.2-2.19-5.08-1.46-9.29-4.95-13.27-8.42-8.71-7.6-17.11-15.55-25.18-23.82-2.93-3.01-5.88-6.1-9.58-8.1s-8.34-2.73-12.08-.81c-1.67.85-3.04,2.16-4.39,3.47-12.01,11.65-23.21,24.13-33.51,37.32-4.52,5.79-8.91,11.76-14.43,16.61-7.58,6.64-19.1,16.02-20.14,21.13-1.28,8.58-11.4,12.3-17.15,18.8-3.23,3.66-5.09,8.3-7.47,12.56-5.08,9.1-12.61,16.55-20.04,23.86l156.07,30.64,120.92-79.33Z"/>
      <path class="cls-15" d="m115.75,555.51c31.82-10.33,52.15-40.95,80-59.47,29.85-19.86,68.02-25.53,95.71-48.31,17.71-14.56,30.15-35.4,49.97-46.92,7.33-4.26,15.49-7.12,22.35-12.11,6.57-4.79,11.64-11.34,17.73-16.73,6.09-5.39,13.91-9.78,21.98-8.75,7.03.9,12.86,5.69,18.26,10.28,6.36,5.41,12.73,10.82,19.09,16.23,8.37,7.11,16.78,14.27,23.81,22.72,7.83,9.4,13.95,20.4,23.46,28.09,5.82,4.71,12.66,7.96,19.08,11.8,8.33,4.99,16,11,23.64,16.99,11.87,9.31,23.75,18.62,35.62,27.93l-241.79,122.83-208.93-64.57Z"/>
      <path class="cls-14" d="m614.78,595.86l-46.32,19.89-31.32,13.49-52.78,22.68-41.38,17.8-10.82-4.76-27.98-12.37-6.37-2.79-12.13-5.37-58.33-25.71-25.28-11.16c8.15-2.97,16.28-6.12,24.31-9.4,7.15-2.94,14.28-5.97,21.34-9.12,1.82-.82,3.67-1.64,5.4-2.67,1.12-.67,2.18-1.39,3.15-2.27,2.37-2.15,4.03-4.91,5.94-7.46,3.24-4.34,7.09-8.03,11.31-11.37,7.67-6.09,16.52-10.94,24.92-16.16,12.64-7.85,24.55-16.83,36.32-25.98,3.85-3,7.67-6.03,11.49-9.03,17.04-13.43,34.17-26.74,53.11-37.2,8.15-4.49,16.64-8.49,25.13-12.52,5.46-2.58,10.91-5.18,16.22-7.91,11.79-6.12,23.04-12.97,32.59-22.13,2.46-2.36,5-4.97,8.34-5.58,2.37-.45,4.88-.06,7.03.94,14.34,6.73,18.01,12.16,25.83,20.07l.18,105.77c.03,13.43.06,26.89.09,40.32Z"/>
      <path class="cls-6" d="m407.73,632.45l-3.55,20.13-6.79,38.32-36.68,9.73-.03.03-22.28,5.91-36.32,9.64-25.65,5.49-13.46,2.88-12.07,2.58-24.28,5.18-30.77-10.73-51.54-17.98-18.28-6.37-48.9-17.07-40.05-13.95v-.03l-22.77-7.91-12.4-4.33-7.37-2.58c.03-22.31.09-44.62.12-66.94.06-22.74.09-45.5.12-68.24,5.76.73,11.46,1.91,17.1,3.4h.03c.79.21,1.61.42,2.4.64,4.88,1.33,9.7,2.85,14.52,4.49,2.4.79,4.76,1.64,7.12,2.49,1.15.39,2.27.79,3.4,1.18,1.61.58,3.24,1.18,4.85,1.73v.03c21.49,7.73,42.93,15.37,65.45,13.82,12.92-.91,25.59-4.82,38.32-7.19h.03c7.73-1.46,15.46-2.3,23.31-1.58,7.15.7,13.85,2.64,20.34,5.37.48.21.97.42,1.42.64,7.49,3.3,14.61,7.64,21.71,12.28,5.58,3.67,11.13,7.49,16.76,11.16,6.28,4.09,12.67,7.97,19.37,11.1,2.97,1.39,6,2.64,9.09,3.79,12.28,4.55,25.25,7.28,38.02,10.49,9.52,2.43,18.98,5.12,28.35,8.12,8.28,2.64,16.46,5.49,24.59,8.55,18.37,6.94,36.32,15.01,53.69,24.13.18.09.33.18.52.27.85.45,1.73.88,2.55,1.33Z"/>
      <path class="cls-8" d="m614.94,670.77c.03,9.16.03,18.31.06,27.47l-46.35,19.25-30.22,12.52-134.33,55.81-19.67,8.15-7.97,3.3-26.16,10.85-27.92-22.74-62.39-50.84-9.06-7.4-14.19-11.58c4.79-1.3,9.61-2.67,14.37-4.09,2.34-.7,4.67-1.42,6.97-2.15,18.22-5.73,36.14-12.43,53.63-20.07,4.64-2.03,9.4-4.24,12.67-8.09,2.27-2.64,3.67-5.91,5.7-8.76,1.06-1.49,2.27-2.82,3.58-4,8.67-7.97,22.13-9.82,34.23-11.37,2.79-.36,5.67-.76,8.06-2.21,2.52-1.52,4.24-4.03,6.09-6.31,1.15-1.42,2.4-2.79,3.67-4.09,5.52-5.55,12-9.85,18.98-13.58.27-.15.52-.27.79-.39,12.49-6.58,26.43-11.37,38.92-18.25,3.97-2.18,7.82-4.61,11.4-7.34,7.46-5.7,13.73-12.76,20.28-19.49,17.25-17.79,36.56-33.47,55.99-48.81,1.94-1.55,3.94-3.09,6.03-4.55,6.18-4.37,13-7.85,20.4-7.37,6.76.42,12.79,4.18,18.46,7.85,12.31,8.03,24.62,16.49,37.74,23.04.03,13.43.06,26.89.09,40.32.06,24.98.09,49.93.15,74.91Z"/>
      <path class="cls-3" d="m384.66,794.09l-7.64,6.09-12.45,9.94h-214.27l-103.09-41.83-32.89-13.37-19.95-8.09c.03-25.26.09-50.51.12-75.76.03-6.55.03-13.13.06-19.68.03-22.31.09-44.62.12-66.93,3.61.27,7.22.54,10.83.97,1.82.21,3.6.45,5.42.72,1.13.16,2.28.34,3.4.52,7.85,1.3,15.61,3.15,23.25,5.4,7.4,2.15,14.67,4.63,21.86,7.39,9.24,3.52,18.31,7.43,27.25,11.61h.03c16.01,7.52,31.62,15.92,46.96,24.71,3,1.73,6,3.46,9.01,5.25,12.09,7.06,24.07,14.33,36.01,21.67,2.7,1.64,5.4,3.31,8.09,4.97,7.1,4.37,14.19,8.73,21.29,13.07,6.15,3.82,12.3,7.61,18.46,11.37,5.94,3.67,11.94,7.36,17.19,11.97,2.64,2.31,5.03,4.79,7.36,7.4,3.98,4.36,7.7,8.94,11.89,13.1.64.63,1.3,1.27,1.97,1.91,2.79,2.54,5.76,4.88,8.85,7,6.34,4.39,13.16,8.09,19.95,11.73,19.43,10.46,38.86,20.89,58.3,31.35,8.18,4.39,16.37,8.79,24.55,13.18v.03c2.61,1.37,5.22,2.79,7.82,4.19.09.03.18.09.25.12Z"/>
      <path class="cls-12" d="m615.21,806.52v3.6H231.05c7.9-3.69,16.31-6,24.86-6.69.21-.03.45-.03.66-.06,16.07-1.19,33.14,2.63,47.63-5.1,6.49-3.45,11.88-9,18.16-12.88.57-.36,1.15-.73,1.76-1.06,7.57-4.22,16.15-5.46,24.52-7.1,1.12-.21,2.27-.42,3.4-.66,10.7-2.22,21.28-5.04,31.86-7.98l6.27-1.72c6.46-1.79,12.95-3.61,19.41-5.49,24.88-7.19,49.59-15.25,72.78-27.44,18.8-9.88,36.75-22.46,55.42-32.62,0,0,.03,0,.06-.03,13.43-7.27,27.23-13.27,41.96-16.06,9.34-1.76,19.22-2.28,27.37-7.61,2.88-1.88,5.4-4.28,7.77-6.85.03,9.15.03,18.31.05,27.46.07,36.11.13,72.18.22,108.29Z"/>
      <path class="cls-2" d="m294.94,810.12H-5.75v-3.69c.03-19.86.06-39.75.12-59.6.03-25.26.09-50.51.12-75.76,2.03.88,4.03,1.79,6.03,2.73,4.61,2.06,9.19,4.12,13.8,6.21,2,.91,4,1.82,6,2.73,12.92,5.85,25.8,11.7,38.68,17.55l.03.03c7.61,3.43,15.19,6.88,22.8,10.34,1.61.73,3.22,1.46,4.79,2.21,3.03,1.46,5.94,3.07,8.58,5.13,3.94,3.06,7.16,6.97,10.31,10.82,9.09,11.13,18.16,22.28,27.25,33.41,3.91,4.79,7.95,9.67,13.16,13,4.67,2.97,10.06,4.58,15.43,6.07,8.46,2.39,16.92,4.67,25.43,6.82,2.31.6,4.64,1.18,6.95,1.76,20.79,5.15,41.77,9.67,62.84,13.49,5.76,1.06,11.52,2.06,17.31,3,6.99,1.16,14.08,2.28,21.06,3.75Z"/>
    </g>
    <g>
      <g>
        <rect class="cls-11" x="40.59" y="27.93" width="111.66" height="365.68" rx="36.71" ry="36.71"/>
        <rect class="cls-11" x="179.91" y="27.93" width="111.66" height="365.68" rx="36.71" ry="36.71"/>
        <rect class="cls-11" x="319.24" y="27.93" width="111.66" height="365.68" rx="36.71" ry="36.71"/>
        <rect class="cls-11" x="458.57" y="27.93" width="111.66" height="365.68" rx="36.71" ry="36.71"/>
        <g class="cls-7">
          <g>
            <g>
              <g>
                <path class="cls-1" d="m-88.88,377.61c-.69,0-1.35-.38-1.68-1.05-.45-.93-.07-2.05.85-2.5,7.19-3.53,14.58-6.88,21.72-10.12,18.93-8.59,38.51-17.47,55.65-30.3,5-3.74,9.89-7.85,14.63-11.82,7.6-6.37,15.45-12.96,24.05-18.33,17.42-10.88,37.59-16.62,57.09-22.17,21.03-5.98,42.77-12.17,60.62-24.81,2.06-1.46,4.13-3.05,6.13-4.58,5.82-4.46,11.83-9.08,18.94-11.61,3.62-1.29,7.4-1.99,11.06-2.66,3.06-.56,6.23-1.15,9.19-2.08,7.96-2.49,14.94-7.52,21.68-12.38,5.23-3.77,10.63-7.66,14.66-12.7,3.46-4.33,5.71-9.27,8.1-14.5.94-2.06,1.91-4.18,2.95-6.25.54-1.08,1.21-2.17,1.86-3.23,1.29-2.12,2.62-4.3,2.97-6.35.17-1.02-.12-2.25-.42-3.55-.49-2.1-1.04-4.48.06-6.9.41-.9.8-1.79,1.18-2.65,1.83-4.16,3.41-7.75,5.92-10.22.74-.72,1.92-.71,2.64.03.72.74.71,1.92-.03,2.64-2,1.96-3.44,5.24-5.11,9.05-.39.88-.78,1.78-1.2,2.7-.58,1.27-.23,2.77.18,4.51.37,1.61.76,3.27.47,5.02-.46,2.76-1.99,5.26-3.46,7.68-.63,1.04-1.23,2.02-1.71,2.97-1.01,2-1.96,4.09-2.89,6.12-2.37,5.21-4.83,10.59-8.58,15.28-4.34,5.44-9.96,9.49-15.39,13.4-6.99,5.04-14.21,10.24-22.75,12.91-3.18.99-6.45,1.6-9.62,2.18-3.67.68-7.14,1.32-10.48,2.51-6.56,2.34-12.08,6.57-17.92,11.05-2.03,1.56-4.12,3.16-6.25,4.67-18.38,13.01-40.43,19.29-61.76,25.36-19.25,5.48-39.16,11.15-56.13,21.75-8.38,5.23-16.13,11.74-23.63,18.02-4.77,4-9.71,8.14-14.79,11.95-17.47,13.08-37.23,22.04-56.35,30.71-7.12,3.23-14.47,6.56-21.62,10.07-.26.13-.55.19-.82.19Z"/>
                <path class="cls-1" d="m234.48,348.97c-.4.92-1.2,1.46-2.04,1.46-.34,0-.68-.09-1-.27-1.13-.64-1.59-2.21-1.04-3.51,2.14-4.99,2.98-11.14,2.44-17.8-.56-6.84-2.47-13.41-4.07-18.36-3.4-10.52-7.07-18.2-11.53-24.15-.36-.47-.71-.93-1.08-1.4-.03-.04-.07-.08-.1-.13-1.02-1.32-2.08-2.66-3-4.17-.36-.58-.7-1.18-1-1.82-.39-.79-.71-1.59-1.02-2.36-.52-1.3-1.02-2.53-1.7-3.42-1.21-1.56-3.34-2.22-5.06-1.55-.29.1-.61.27-.94.43-.67.32-1.41.7-2.28.89-1.82.4-3.5-.11-4.97-.56-1.2-.37-2.23-.68-3.03-.45-.59.17-1.21.68-1.94,1.27-.68.56-1.46,1.2-2.37,1.66-.94.48-1.89.7-2.73.9-.65.16-1.26.31-1.76.55-1.16.55-2.13,1.79-3.24,3.48-9.28,14.16-13.31,32.58-16.87,48.84-.31,1.4-1.55,2.24-2.76,1.89-1.22-.35-1.96-1.77-1.65-3.18,3.67-16.74,7.83-35.7,17.65-50.71,1.35-2.05,2.89-4.09,5.11-5.16.9-.43,1.79-.64,2.59-.84.68-.16,1.32-.31,1.82-.58.49-.25,1.02-.68,1.57-1.13.96-.78,2.05-1.67,3.46-2.09,1.94-.56,3.72-.01,5.3.46,1.1.34,2.15.65,2.95.48.38-.08.84-.31,1.34-.55.39-.19.83-.41,1.3-.6,3.48-1.33,7.45-.1,9.88,3.05,1.14,1.47,1.83,3.18,2.44,4.69.29.71.56,1.38.87,2,.36.74.78,1.44,1.24,2.13.67.98,1.41,1.94,2.18,2.92.32.42.65.84.97,1.26.09.11.17.22.25.34,4.83,6.44,8.75,14.62,12.35,25.75,1.7,5.25,3.74,12.25,4.34,19.7.62,7.63-.37,14.75-2.88,20.61Z"/>
                <path class="cls-1" d="m239.06,253.75c-.41,0-.8-.22-1-.61-1.28-2.5-2.73-4.99-5.05-5.67-.62-.18-1.31-.23-2.04-.29-1.18-.09-2.52-.2-3.7-.91-1.48-.89-2.48-2.64-2.66-4.68-.15-1.7.23-3.36.57-4.83.85-3.7,1.73-7.52,3.37-11.08.15-.32.3-.63.45-.94.56-1.16,1.09-2.25,1.29-3.39.26-1.46,0-2.95-.29-4.53-.15-.86-.31-1.74-.38-2.64-.19-2.3-.3-4.74-.32-7.24,0-.62.49-1.13,1.11-1.13h.01c.61,0,1.11.49,1.12,1.11.03,2.44.13,4.82.32,7.08.06.79.21,1.59.35,2.43.3,1.7.61,3.46.29,5.31-.26,1.45-.88,2.74-1.48,3.98-.15.3-.29.6-.43.91-1.55,3.34-2.4,7.05-3.22,10.64-.32,1.37-.64,2.79-.52,4.13.12,1.33.71,2.44,1.58,2.96.73.44,1.7.51,2.72.59.81.06,1.65.13,2.49.37,3.17.93,4.97,4,6.41,6.8.28.55.07,1.23-.48,1.51-.16.08-.34.12-.51.12Z"/>
                <path class="cls-1" d="m328.77,348.34c-.34.15-.69.22-1.04.22-1.01,0-1.97-.59-2.4-1.58-1.54-3.55-3.36-7.04-5.43-10.35-1.55-2.51-2.59-3.87-3.51-5.08-1.05-1.38-1.96-2.58-3.09-4.79-2.13-4.17-2.51-6.98-2.81-9.25-.26-1.97-.46-3.39-1.7-5.52-1.85-3.15-5.85-5.67-9.38-7.91-.64-.41-1.28-.81-1.88-1.2-1.7-1.11-3.49-2.2-5.22-3.26-4.55-2.77-9.26-5.64-13.36-9.4-3.89-3.57-7.05-7.78-10.1-11.85-1.26-1.69-2.57-3.43-3.9-5.08-2.48-3.09-5.34-6.26-9-9.94-.78-.79-1.63-1.57-2.53-2.39-2.51-2.3-5.11-4.68-6.79-7.83-.28-.52-.63-.84-1.27-1.44-.22-.2-.45-.4-.67-.62-.84.37-2.42,1.77-3.54,3.17l-.16.18c-.42.44-10.28,10.76-12.24,12.76-1.01,1.02-2.35,5.26-3.08,7.53-.38,1.19-.7,2.2-1,2.97-.69,1.78-2.1,3.4-4.27,4.89-1.19.83-2.6,1.61-4.25,2.36-.03-.04-.07-.08-.1-.13-1.02-1.32-2.08-2.66-3-4.17.13-.09.26-.16.4-.22,1.66-.73,2.89-1.41,3.8-2.03,1.81-1.21,2.36-2.15,2.53-2.59.25-.62.56-1.61.9-2.67,1.38-4.36,2.59-7.83,4.32-9.61,1.76-1.79,10.25-10.67,11.92-12.42.09-.09.16-.16.2-.21.29-.36.75-.9,1.35-1.52,1.5-1.55,3.84-3.5,6.2-3.62,1.32-.05,2.52.41,3.42,1.34.25.26.51.49.76.72.77.71,1.65,1.5,2.37,2.84,1.26,2.36,3.43,4.34,5.72,6.44.9.83,1.84,1.69,2.71,2.57,1.28,1.29,2.47,2.53,3.58,3.71.92.98,1.79,1.93,2.6,2.86,1.14,1.28,2.18,2.53,3.18,3.77,1.38,1.72,2.72,3.5,4.01,5.22,3.04,4.05,5.91,7.89,9.45,11.13,3.72,3.42,8.01,6.03,12.54,8.8,1.76,1.08,3.6,2.19,5.37,3.34.58.38,1.19.76,1.81,1.16,4.04,2.56,8.61,5.45,11.09,9.69,1.79,3.03,2.09,5.29,2.38,7.48.28,2.06.56,4.18,2.28,7.55.93,1.8,1.63,2.73,2.6,4.01.94,1.23,2.1,2.77,3.79,5.48,2.2,3.54,4.14,7.25,5.78,11.04.58,1.32-.04,2.86-1.36,3.44Z"/>
                <path class="cls-1" d="m-146.94,359.78c-.37,0-.74-.11-1.06-.33-.85-.59-1.06-1.75-.47-2.6,4.46-6.43,9.57-12.46,15.17-17.93,4.62-4.51,10.18-9.21,22.32-17.52,11.85-8.11,21.17-13.63,25.65-16.29l1.27-.75c17.81-10.62,31.17-22.41,41.9-31.88,14.23-12.56,23.63-20.86,32.75-16.91,1.58.69,2.53,1.49,3.44,2.27,1.07.92,2.18,1.86,4.74,2.94,8.86,3.73,17.94,1.58,23.36.3,6.12-1.45,10.12-3.31,13.65-4.95,4.62-2.15,8.6-4,15-3.64,4.15.23,8.27,1.32,12.25,3.24.93.45,1.32,1.56.87,2.49-.45.93-1.57,1.32-2.49.87-3.53-1.7-7.18-2.67-10.84-2.87-5.46-.31-8.72,1.21-13.22,3.3-3.51,1.63-7.88,3.67-14.37,5.2-5.86,1.39-15.68,3.71-25.66-.49-3.09-1.3-4.55-2.54-5.72-3.54-.83-.71-1.43-1.22-2.5-1.68-6.94-3.01-15.63,4.66-28.79,16.28-10.85,9.58-24.35,21.5-42.46,32.29l-1.28.76c-4.45,2.63-13.7,8.11-25.45,16.16-11.92,8.15-17.34,12.74-21.82,17.11-5.43,5.3-10.38,11.15-14.71,17.38-.36.52-.95.8-1.54.8Z"/>
                <path class="cls-1" d="m36.74,292.28c-.46,0-.93-.12-1.35-.38-1.24-.75-1.64-2.35-.89-3.59,6.36-10.54,14.44-19.83,22.25-28.81,6.21-7.13,12.62-14.51,18.05-22.39,1.38-2.01,2.75-4.08,4.07-6.09,3.36-5.11,6.84-10.38,11.01-15.24.9-1.05,3.64-4.24,7.31-3.32,2.06.52,3.26,2.11,4.14,3.27l.21.28c2.57,3.37,6.44,5.64,10.34,6.06,4.04.43,8.21-1.17,10.65-4.08,1.91-2.29,2.98-5.4,4.1-8.69,1.7-4.96,3.46-10.09,8.41-12.92,2.54-1.45,5.39-1.87,7.68-2.21,8.17-1.21,16.86-2.25,25.26-.56,9.89,1.99,17.92,8.03,22.59,17.01.67,1.28.17,2.86-1.11,3.53-1.28.67-2.86.17-3.53-1.11-3.93-7.55-10.68-12.63-18.99-14.3-7.59-1.53-15.43-.58-23.46.61-1.95.29-4.17.62-5.85,1.58-3.24,1.84-4.54,5.65-6.05,10.07-1.23,3.6-2.5,7.31-5.04,10.35-3.58,4.28-9.41,6.56-15.22,5.93-5.38-.58-10.46-3.53-13.94-8.09l-.23-.31c-.34-.45-.96-1.28-1.24-1.35,0,0-.58-.07-2.06,1.65-3.95,4.6-7.18,9.51-10.61,14.7-1.33,2.03-2.71,4.12-4.13,6.18-5.59,8.13-12.11,15.61-18.41,22.86-7.67,8.81-15.6,17.92-21.72,28.07-.49.81-1.36,1.27-2.24,1.27Z"/>
                <path class="cls-1" d="m346.57,276.83h-.04c-1.44-.02-2.6-1.21-2.58-2.65.53-36.72-5.06-43.32-7.49-44.45-.11-.05-.24-.11-.4-.18-1.56-.67-5.21-2.24-7.36-6.02-1.56-2.75-1.42-5.1-1.31-6.99.08-1.45.15-2.59-.41-4.02-.74-1.88-1.84-2.45-3.67-3.4-1.98-1.03-4.44-2.31-6.34-5.58-1.75-3.02-1.64-5.39-1.52-8.12.1-2.16.23-4.85-.5-9.04-.87-5.06-2.38-8.91-3.21-10.76-1.58-3.54-2.98-5.33-6.73-10.12-1.24-1.58-2.71-3.47-4.51-5.82-4.18-5.48-5.61-7.61-6.38-8.76-.56-.83-.62-.92-1.21-1.51-3.68-3.69-6.76-4.73-15.93-7.83-2.29-.77-4.94-1.67-8.03-2.75-5.11-1.79-9.03-3.26-12.18-4.43-8.97-3.35-10.56-3.88-13.87-2.97-5.41,1.49-9.55,5.48-12.87,8.68l-.17.16c-1.8,1.74-5.56,5.35-8.48,11.18-1.01,2.01-1.59,3.64-2.15,5.21-.86,2.41-1.67,4.69-3.73,7.63-2.09,2.99-3.79,4.24-5.44,5.45-1.08.79-2.1,1.54-3.38,2.89-3.07,3.23-3.76,5.8-5.28,11.45-1.05,3.91-2.49,9.27-5.37,16.88-2.24,5.91-3.47,9.16-5.72,12.44-4.2,6.12-10.16,10.99-17.7,14.48-1.31.6-2.87.03-3.47-1.28-.61-1.31-.03-2.87,1.28-3.47,6.68-3.08,11.92-7.35,15.58-12.69,1.81-2.64,2.89-5.38,5.14-11.33,2.79-7.36,4.13-12.36,5.21-16.38,1.59-5.93,2.55-9.5,6.54-13.7,1.6-1.68,2.91-2.64,4.07-3.49,1.48-1.09,2.65-1.95,4.25-4.23,1.65-2.36,2.29-4.14,3.09-6.39.59-1.64,1.25-3.5,2.4-5.8,3.32-6.63,7.67-10.82,9.52-12.6l.17-.16c3.55-3.43,8.41-8.12,15.11-9.96,5.04-1.39,8.07-.25,17.08,3.12,3.13,1.17,7.02,2.62,12.08,4.39,3.07,1.08,5.7,1.96,7.98,2.73,9.49,3.21,13.42,4.53,17.97,9.09.9.91,1.18,1.3,1.85,2.29.74,1.1,2.11,3.15,6.19,8.5,1.78,2.33,3.24,4.2,4.47,5.77,3.81,4.87,5.55,7.09,7.38,11.22.92,2.07,2.61,6.38,3.58,11.99.82,4.76.68,7.89.57,10.18-.11,2.44-.17,3.56.81,5.25,1.14,1.96,2.5,2.66,4.23,3.56,2.08,1.08,4.68,2.43,6.13,6.14.98,2.5.86,4.57.76,6.24-.09,1.63-.16,2.7.64,4.1,1.28,2.25,3.62,3.25,4.88,3.79.21.09.39.17.54.24,4.79,2.23,11.08,9.76,10.51,49.27-.02,1.43-1.19,2.58-2.62,2.58Z"/>
                <path class="cls-1" d="m625.93,302.73c-.24,0-.47-.08-.67-.23-4.28-3.35-8.41-6.79-12.28-10.23-.83-.74-1.57-1.41-2.24-2.01-3.15-2.84-4.73-4.27-7.7-5.72-1.42-.69-2.47-1.05-3.4-1.37-1.36-.47-2.54-.87-4.15-2.04-2.64-1.92-3.64-3.85-4.7-5.9-.54-1.04-1.1-2.12-1.91-3.27-2.03-2.86-3.85-3.62-6.87-4.89-2.59-1.09-6.14-2.58-11.19-6.04-2.79-1.91-4.35-3.26-5.72-4.44-1.65-1.43-2.96-2.56-5.9-4.16-3.64-1.99-7.58-3.5-11.7-4.48-.59-.14-.95-.73-.81-1.32.14-.59.73-.95,1.32-.81,4.31,1.03,8.43,2.61,12.24,4.69,3.14,1.71,4.59,2.97,6.28,4.42,1.33,1.15,2.83,2.45,5.53,4.29,4.88,3.34,8.16,4.72,10.81,5.83,3.14,1.32,5.41,2.28,7.8,5.64.91,1.28,1.53,2.47,2.07,3.53,1.02,1.97,1.82,3.52,4.04,5.13,1.34.98,2.28,1.3,3.58,1.74.99.34,2.11.72,3.64,1.47,3.25,1.58,5.01,3.17,8.21,6.06.67.6,1.4,1.26,2.23,2,3.83,3.41,7.93,6.82,12.17,10.14.48.37.56,1.06.19,1.54-.22.28-.54.42-.86.42Z"/>
                <path class="cls-1" d="m546.48,279.06c-.1,0-.21,0-.31-.03-1.02-.17-1.7-1.14-1.53-2.15,1.7-10.02,2.12-20.06,1.25-29.83-1.37-15.43-4.85-19.22-6.81-20.11-.9-.41-1.72-.5-2.66-.61-1.53-.17-3.26-.37-5.15-1.95-2.5-2.08-2.96-4.61-3.4-7.06-.28-1.54-.57-3.13-1.39-4.73-.94-1.83-1.92-2.41-7.65-5.58-1.29-.72-2.81-1.55-4.59-2.56-3.73-2.1-6.67-3.83-9.04-5.22-7.37-4.33-8.85-5.13-11.69-4.74-1.55.21-2.36.63-3.4,1.16-1.41.73-3.02,1.55-6.33,1.9-4.84.51-9.13-.45-12.91-1.29-3.11-.7-4.92-1.31-6.24-1.76-1.55-.53-2.02-.69-3.19-.52-1.29.19-1.75.52-4.98,3.07-1.18.93-2.64,2.08-4.6,3.57-2.44,1.86-4.16,3.1-5.41,4.01-2.63,1.9-2.78,2.04-3.21,2.91-.69,1.4-.83,2.55-.98,3.89-.21,1.84-.46,3.94-2.16,6.65-.88,1.39-1.52,1.96-2.14,2.51-.5.44-.97.86-1.76,1.93-1.78,2.43-2.16,4.16-2.54,5.82-.39,1.72-.79,3.51-2.66,5.26-1.92,1.8-3.74,2-5.35,2.17-1.53.17-3.11.34-5.43,1.95-.71.49-1.26.96-1.79,1.41-1.21,1.03-2.35,2-4.46,2.34-1.62.26-2.83-.03-3.71-.23-.88-.21-1.06-.22-1.34-.07-.34.17-.47.42-.79,1.3-.37,1.04-.89,2.47-2.53,3.47-1.55.94-2.92.77-4.03.63-.83-.11-1.61-.2-2.68.09-.98.27-1.3.59-1.89,1.18-.6.61-1.35,1.36-2.79,2.03-2.91,1.35-5.31.76-7.25.29-1.67-.41-2.99-.72-4.64-.02-1.09.47-1.72,1.11-2.38,1.8-.93.96-2.08,2.15-4.19,2.17h-.06c-2.95,0-5.01-2.33-6-3.45-.11-.12-.21-.23-.29-.33-2.08-2.24-7.82-4.08-23.27-.14-1.01.26-2.02-.35-2.27-1.35-.25-1,.35-2.02,1.35-2.27,14.03-3.58,22.84-3.18,26.94,1.22.11.11.23.25.36.4.72.82,1.93,2.19,3.2,2.19h.02c.5,0,.73-.19,1.55-1.04.77-.79,1.82-1.87,3.59-2.63,2.79-1.2,5.12-.63,7-.18,1.72.41,3.07.74,4.79-.05.83-.38,1.22-.78,1.71-1.27.72-.72,1.61-1.61,3.55-2.15,1.79-.49,3.15-.32,4.14-.19.96.12,1.23.13,1.62-.11.49-.3.65-.71.95-1.54.38-1.06.9-2.5,2.61-3.37,1.54-.78,2.84-.48,3.88-.23.74.17,1.38.33,2.28.18,1.03-.16,1.51-.55,2.62-1.49.57-.49,1.22-1.04,2.08-1.64,3.1-2.15,5.44-2.4,7.15-2.59,1.41-.15,2.19-.24,3.2-1.19,1.03-.97,1.23-1.86,1.57-3.35.41-1.85.93-4.15,3.17-7.21,1.02-1.4,1.73-2.02,2.3-2.53.52-.46.86-.76,1.45-1.69,1.25-2,1.42-3.43,1.61-5.09.17-1.47.37-3.14,1.35-5.12.86-1.74,1.68-2.33,4.37-4.28,1.24-.9,2.94-2.12,5.34-3.96,1.93-1.47,3.38-2.61,4.55-3.53,3.31-2.61,4.42-3.49,6.76-3.83,2.06-.3,3.21.09,4.94.68,1.24.42,2.93,1,5.84,1.65,3.68.82,7.47,1.67,11.7,1.22,2.62-.28,3.78-.88,5.02-1.51,1.14-.58,2.43-1.24,4.61-1.54,4.21-.57,6.5.77,14.09,5.22,2.35,1.38,5.28,3.1,8.98,5.19,1.77,1,3.28,1.83,4.56,2.54,6.06,3.35,7.69,4.25,9.17,7.15,1.07,2.09,1.43,4.04,1.74,5.76.39,2.12.66,3.65,2.12,4.86,1.03.86,1.89.96,3.18,1.11,1.1.13,2.34.27,3.78.92,4.85,2.21,7.79,9.79,8.98,23.18.9,10.08.46,20.44-1.29,30.78-.15.91-.95,1.56-1.84,1.56Z"/>
                <path class="cls-1" d="m492.91,261.52c-.22,0-.42-.13-.51-.34-4.18-10.31-5.04-18.84-2.55-25.36.12-.32.27-.68.43-1.07,1.09-2.65,2.73-6.66,2.09-11.74-.18-1.41-.44-2.18-.72-2.99-.31-.9-.63-1.84-.81-3.65-.32-3.26.2-5.35.7-7.36.41-1.63.79-3.16.65-5.22-.21-3.07-1.53-6.16-3.94-9.18-.19-.24-.15-.58.09-.77.24-.19.58-.15.77.09,2.55,3.19,3.96,6.49,4.18,9.79.15,2.23-.25,3.84-.68,5.56-.48,1.92-.98,3.91-.68,6.99.16,1.68.45,2.52.76,3.4.28.83.58,1.68.77,3.2.68,5.37-1.1,9.7-2.16,12.29-.16.38-.3.73-.42,1.04-2.39,6.25-1.53,14.51,2.54,24.55.11.28-.02.6-.3.71-.07.03-.14.04-.21.04Z"/>
                <path class="cls-1" d="m262.99,268.83c-.47,0-.93-.17-1.3-.52-.74-.72-.76-1.9-.05-2.64,1.13-1.17,5.06-7.83,6.46-11.18.93-2.21,1.14-3.82,1.39-5.69.1-.76.2-1.55.36-2.41.79-4.31,2.19-6.37,3.55-8.36,1.1-1.62,2.25-3.29,3.3-6.49.71-2.14,1.09-7.48,1.78-17.17.42-5.85.69-9.69.53-10.85-.55-3.87-1.71-5.82-3.06-8.07-1.37-2.28-2.91-4.85-3.72-9.54-.43-2.48-.43-4.31-.43-5.77,0-2.01,0-3.33-.96-5.51-1.18-2.68-3.15-5.06-5.85-7.06-.83-.62-1-1.79-.39-2.61.62-.83,1.79-1,2.61-.39,3.23,2.4,5.6,5.28,7.05,8.56,1.28,2.89,1.28,4.89,1.28,7.01,0,1.46,0,2.97.38,5.14.69,3.99,1.93,6.06,3.24,8.25,1.43,2.38,2.91,4.84,3.56,9.47.21,1.48.01,4.45-.5,11.6-.76,10.67-1.1,15.53-1.96,18.11-1.22,3.69-2.57,5.67-3.76,7.42-1.3,1.9-2.32,3.4-2.97,6.93-.14.77-.24,1.51-.33,2.23-.26,1.95-.52,3.97-1.65,6.65-1.43,3.39-5.55,10.59-7.22,12.33-.37.38-.86.57-1.35.57Z"/>
                <path class="cls-1" d="m279.72,199.78c-.37,0-.74-.19-.95-.53-.33-.53-.17-1.22.36-1.54,1.52-.95,2.98-2.03,4.34-3.2,2.15-1.87,5.75-4.99,7.05-8.61.91-2.54.33-4.37-.64-7.41-.62-1.94-1.39-4.36-1.96-7.64-.83-4.77-.95-9.79-.35-14.92.07-.62.63-1.05,1.24-.98.61.07,1.05.63.98,1.24-.58,4.92-.46,9.72.33,14.28.55,3.12,1.29,5.46,1.89,7.34,1.03,3.25,1.78,5.59.61,8.85-1.49,4.16-5.37,7.53-7.69,9.54-1.44,1.25-3,2.4-4.62,3.41-.18.11-.39.17-.59.17Z"/>
                <path class="cls-1" d="m350.65,296.56c-.32,0-.63-.13-.85-.39-3.27-3.84-6.97-7.26-11.01-10.17-4.34-3.13-7.16-4.3-9.65-5.33-2.41-1-4.69-1.94-7.71-4.39-4.58-3.71-5.88-6.83-7.26-10.13-1.33-3.19-2.85-6.8-7.77-11.86-2.4-2.47-4.43-4.08-6.22-5.5-3.1-2.46-5.34-4.25-6.29-8.26-.3-1.28-.42-2.54-.52-3.76-.23-2.55-.43-4.75-2.24-6.57-.81-.81-1.46-1.08-2.36-1.46-.63-.26-1.35-.56-2.2-1.09-3.64-2.28-6.09-6.64-7.3-12.96-.12-.61.28-1.2.89-1.31.6-.11,1.19.28,1.31.89,1.08,5.69,3.2,9.55,6.28,11.48.69.43,1.29.68,1.87.93.96.4,1.96.82,3.08,1.95,2.38,2.39,2.63,5.22,2.88,7.95.1,1.14.21,2.32.47,3.44.77,3.26,2.55,4.68,5.5,7.02,1.75,1.39,3.93,3.12,6.43,5.69,5.22,5.36,6.82,9.19,8.24,12.56,1.38,3.29,2.47,5.89,6.61,9.25,2.77,2.24,4.8,3.08,7.16,4.06,2.6,1.08,5.56,2.3,10.11,5.58,4.18,3.02,8.02,6.57,11.4,10.54.4.47.35,1.18-.13,1.58-.21.18-.47.27-.73.27Z"/>
                <path class="cls-1" d="m55.08,293.17c-.38,0-.75-.19-.96-.54-.32-.53-.15-1.22.37-1.54,8.6-5.24,17.17-10.49,25.46-15.62l5.49-3.4c16.89-10.47,20.41-12.65,27.43-14.39,6.01-1.49,9.93-1.48,13.42-1.48,3.67.01,6.83,0,11.57-1.87,8.27-3.28,15.27-9.86,20.83-19.55.31-.54.99-.72,1.53-.41.54.31.72.99.41,1.53-5.82,10.14-13.2,17.05-21.95,20.52-5.13,2.04-8.48,2.05-12.4,2.03-3.33,0-7.13,0-12.87,1.41-6.68,1.65-10.14,3.8-26.78,14.12l-5.49,3.4c-8.29,5.13-16.86,10.39-25.47,15.63-.18.11-.38.16-.58.16Z"/>
              </g>
              <path class="cls-1" d="m211.61,202.44s-.07,0-.1,0c-.62-.06-1.07-.6-1.02-1.22.39-4.38,1.72-8.25,3.92-11.5,2.92-4.29,6.47-6.08,9.6-7.65,2.82-1.42,5.49-2.76,7.55-5.76,2.06-3,2.02-5.38,1.94-9.31-.05-2.48-.11-5.56.42-9.56.86-6.55,5.15-18.42,11.69-28.43.34-.52,1.04-.66,1.55-.33.52.34.66,1.03.33,1.55-6.35,9.73-10.51,21.19-11.34,27.5-.5,3.83-.45,6.7-.4,9.22.08,4.08.14,7.02-2.33,10.62-2.38,3.47-5.44,5.01-8.39,6.49-3.03,1.53-6.17,3.1-8.76,6.91-1.99,2.93-3.19,6.44-3.55,10.44-.05.58-.54,1.02-1.12,1.02Z"/>
              <path class="cls-1" d="m386.47,295.71c-.1,0-.2-.01-.29-.04-9.58-2.6-16.58-7.04-20.83-13.18-1.44-2.08-2.51-4.27-3.54-6.39-2.04-4.18-3.97-8.14-8.59-11.51-2.11-1.54-4.5-2.74-7.1-3.57-.59-.19-.92-.82-.73-1.41.19-.59.82-.92,1.41-.73,2.83.9,5.44,2.22,7.74,3.9,5.06,3.7,7.21,8.09,9.28,12.33,1.04,2.14,2.03,4.16,3.37,6.1,3.94,5.69,10.52,9.83,19.58,12.29.6.16.95.78.79,1.38-.14.5-.59.83-1.08.83Z"/>
              <path class="cls-1" d="m511.43,304.55c-5.16,0-9.17-1.08-12.14-2.4-1.79-.79-3.33-1.72-4.82-2.61-3.26-1.95-5.84-3.5-9.58-2.91-1.58.25-2.93.81-4.23,1.36-2.18.92-4.44,1.86-7.52,1.18-1.94-.43-2.97-1.24-4.06-2.09-.71-.56-1.45-1.13-2.57-1.7-4.14-2.11-8.22-1.5-11.83-.95-.69.1-1.35.2-1.99.28-7.36.88-9.56,1.74-18.32-2.73-.55-.28,17.77,1.05,18.05.5.28-.55-19.61-4.72-19.06-4.45,8.36,4.26,12.15,5.28,19.06,4.45.61-.07,1.25-.17,1.92-.27,3.74-.57,8.4-1.27,13.19,1.17,1.31.67,2.17,1.34,2.93,1.93,1,.78,1.72,1.34,3.17,1.67,2.38.53,4.13-.2,6.16-1.05,1.36-.57,2.91-1.22,4.76-1.51,4.54-.7,7.72,1.2,11.08,3.21,1.43.86,2.91,1.74,4.57,2.48,5.96,2.65,16.5,4.24,32.82-3.18,5.98-2.72,9.39-5.79,12.39-8.51,3.73-3.36,6.95-6.27,13.45-6.74,1.74-.13,2.47,0,4.43.37,1.98.37,5.3.99,12.48,1.85,4.88.59,7.8.84,10.15,1.05,2.45.21,4.38.38,7.42.81,6.85.97,13.8,2.52,20.67,4.62.59.18.93.81.75,1.4-.18.59-.81.93-1.4.75-6.76-2.06-13.6-3.59-20.33-4.55-2.98-.42-4.89-.59-7.3-.8-2.37-.2-5.31-.46-10.23-1.05-7.25-.88-10.61-1.5-12.62-1.88-1.9-.35-2.41-.45-3.86-.34-5.74.42-8.41,2.83-12.12,6.17-2.97,2.68-6.67,6.02-12.97,8.88-9.14,4.15-16.59,5.59-22.52,5.59Z"/>
            </g>
            <g>
              <path class="cls-1" d="m266.92,134.59l-13.9-26.99-15.56,25.74-1.73-1.05,16.5-27.29c.19-.31.6-.49.9-.49.37.01.7.22.87.55l14.73,28.6-1.8.93Z"/>
              <polygon class="cls-1" points="253.39 124.05 252.08 104.99 252.07 75.29 254.1 75.29 254.1 104.92 255.41 123.92 253.39 124.05"/>
              <path class="cls-1" d="m255.26,125c-1.01,0-2.08-.12-3.21-.4-4.37-1.11-6.85-4.13-7.71-5.39-.17-.25-.23-.57-.14-.86.09-.29.3-.53.58-.65l8.56-3.65c.34-.14.73-.09,1.02.14l7.52,6.73h0l.15-.09,1.04,1.74-.87.52c-1.1.66-3.64,1.92-6.94,1.92Zm-8.49-5.95c1.07,1.22,2.96,2.87,5.77,3.58,3.58.9,6.62-.25,8.03-.97l-7-5.52-6.8,2.9Z"/>
            </g>
            <path class="cls-1" d="m277.74,138.68l-6.95-11.92-1.06,7.79-2-.27,1.3-9.56h-3.23l-.49-24.49,4.34-1.63,1.49,24.1.1.8h0l8.26,14.16-1.75,1.02Zm-9.96-15.98h1.33l-1.31-21.24-.44.16.42,21.08Z"/>
          </g>
        </g>
      </g>
      <g>
        <path class="cls-5" d="m553.45,150.44c-.62-2.57-1.83-5.59-4.1-8.46,1.98-2.08,3.01-4.95,2.88-8.16-.1-2.36-.82-4.74-2.01-6.71-2.35-3.88-6.04-6.49-10.68-7.57-1.97-.45-3.94-.68-5.86-.68-.19,0-.37,0-.56.01.57-2.91.81-5.57.71-8.06-.29-7.11-.8-14.27-1.29-21.19l-.19-2.72c-.13-1.89-.36-5.04-1.91-8.09-1.7-3.34-5.85-6.97-10.93-7.04-.04,0-.11,0-.15,0-4.92,0-8.39,3.33-10.03,5.31-.11.13-.21.27-.32.41l-.06.02c.15-.77.28-1.55.37-2.34.7-5.99-.48-11.84-3.32-16.46-5.74-9.34-15.83-10.03-30.57-10.03-6.65,0-15.34.22-26.34.51-3.06.08-6.32.16-9.8.25l-1.97.05c-13.77.34-23.72.58-31.45,1.91-6.42,1.1-15.49,3.58-20.17,12.32-.78,1.46-2,4.16-2.52,7.5-.39-.04-.79-.06-1.18-.06-5.78,0-10.84,3.96-12.58,9.84-.34,1.14-.61,2.32-.81,3.52-.3-.44-.59-.88-.89-1.32-1.41-2.07-3.22-3.89-5.24-5.24-2.23-1.51-4.78-2.31-7.37-2.31-.09,0-.19,0-.28,0-1.69.04-3.33.41-4.89,1.1-3.67,1.64-6.39,4.85-7.66,9.04-.51,1.7-.81,3.37-.89,4.98-.51,10.47,0,21.56,1.6,34.92.24,2.04.93,4.16,1.99,6.15,1.48,2.77,3.74,4.77,6.36,5.75-1.7,1.37-3.13,3.14-4.13,5.24-1.18,2.47-1.72,5-2.13,7.36-.54,3.15.33,5.99,1.15,7.81,2.27,5.04,7.44,8.29,13.17,8.29.6,0,1.2-.04,1.78-.11,1.33.65,2.81,1.02,4.38,1.04.04,0,.1,0,.14,0,2.12,0,4.07-.63,5.7-1.72.19.06.38.12.57.17.61,1.24,1.42,2.39,2.44,3.4,2.39,2.35,5.13,4.05,7.93,4.92,2.13.66,4.31,1,6.47,1,3.9,0,7.68-1.1,10.92-3.19.43-.28.85-.58,1.26-.88,4.36,3.38,9.83,5.4,15.76,5.4s11.64-2.11,16.05-5.63c1.92,1.48,4.22,2.33,6.65,2.39.01,0,.25,0,.25,0,3.22,0,6.21-1.35,8.48-3.76,1.97,1.85,4.43,3.13,7.26,3.7,1.91.39,3.83.59,5.7.59h0c3.72,0,7.29-.78,10.63-2.29,1.54.85,3.26,1.32,5.05,1.32.39,0,.78-.02,1.17-.07,3.26-.37,6.11-2.24,7.87-5.08.29.19.58.38.88.57,2.68,1.62,5.39,2.44,8.05,2.44h0c2,0,3.93-.47,5.64-1.36,1.02.46,2.12.82,3.27,1.05,1.91.39,3.83.59,5.7.59h0c3.58,0,7.01-.71,10.22-2.1,3.28,2.75,7.13,4.24,11.09,4.24.23,0,.46,0,.69-.01,4.21-.17,7.82-.78,11.06-1.88,8.69-2.98,13.2-11.44,10.98-20.57Z"/>
        <g>
          <rect class="cls-1" x="400.53" y="64.83" width="91.52" height="14.56"/>
          <g>
            <g>
              <path class="cls-9" d="m386.51,93.46l-.04-5.06c0-1.36-.12-2.67-.36-3.91-.42-2.31-1.88-3.94-3.64-4.18-1.94-.25-3.63,1.06-4.3,3.27-.52,1.73-.79,3.58-.82,5.33-.09,4.76-.09,9.58-.12,14.25v5.73c0,.49-.03.97-.03,1.46l-.03,1.12-1.31.67-2.57-3.88c-1.7-2.55-3.4-5.1-5.07-7.64-.96-1.46-1.9-2.94-2.87-4.4-1.67-2.61-3.43-5.3-5.19-7.88-.76-1.12-1.76-2.12-2.82-2.82-.73-.52-1.55-.76-2.3-.76-.46.03-.91.12-1.37.33-1.21.55-2.15,1.73-2.63,3.34-.31.97-.49,1.91-.52,2.76-.48,9.97,0,20.58,1.55,33.41.12.91.45,1.94.97,2.91.57,1.09,1.45,1.69,2.27,1.6.85-.06,1.61-.78,2.06-2,.37-.97.55-1.97.58-2.88.09-5.15.12-10.4.15-15.49l.03-4.03c0-.46,0-.91-.03-1.4l-.06-2,.91.79c.76.67,1.21,1.4,1.57,2.03l.25.4c.76,1.21,1.51,2.45,2.27,3.7,1.82,2.97,3.67,6.06,5.73,8.85,1.73,2.33,4.4,5.64,7.49,7.7,3,2,5.52,2.36,7.37,1.06,1.84-1.3,2.88-4.34,2.91-8.49.06-7.97,0-16.07-.03-23.89Z"/>
              <path class="cls-9" d="m412.7,114.11c-.79-3.61-1.37-7.22-2.12-10.83-.25-1.15-.55-2.63-1.4-3.27-2.48-1.94-5.18-3.61-8.64-3-6.03,1.06-11.91,7.67-12.4,14.07-.45,5.97,4.28,10.09,10.13,8.67,1.54-.4,2.97-1.28,4.42-2.01.52-.24.94-.63,1.46-1.03.24.34.42.58.61.79,1.72,2.58,3.91,3.58,6,2.7,2-.85,2.61-3,1.94-6.09Zm-14.92-1.85c-.57.24-1.42.27-1.94,0-.27-.15-.27-1.18-.09-1.73,1.12-3.15,2.91-5.76,6.37-7.22.66,3.98-1.21,7.74-4.34,8.95Z"/>
              <path class="cls-9" d="m432.65,113.38c-.13-.46-1.11-.94-1.75-.94h-.04c-1.76-.03-3.55.15-5.31.27v-.03c-.88,0-1.76.09-2.57-.03-1.64-.24-2.61-1.3-2.58-2.91.09-2.91,1-5.52,3.39-7.37,1.7-1.3,2.46-.72,3.67,1.01.33.45,1,.9,1.7.54.42-.24.88.06,1.36-1.09.82-1.91-.48-4.37-2.33-5.52-1.97-1.24-4.03-1.12-6.12-.24-4.98,2.15-8.25,7.52-8.1,13.25.12,4.15,2.85,7.52,6.88,8.4,3.79.81,7.1-.34,10.04-2.4,0,0,.01,0,.01-.01.39-.23.75-.5,1.11-.81.48-.39.82-1.48.64-2.12Z"/>
              <path class="cls-9" d="m442.26,103.83c-.07-1.55-.85-2.76-2.52-2.94-1.67-.18-2.88.76-3.15,2.24-.91,5.28-1.85,10.58-2.34,15.92-.24,2.79,1.49,4.58,3.43,4.73,1.97.15,3.58-1.52,4.12-4.4.18-1.06.3-2.18.34-3.27.05-1.64.21-9.85.12-12.28Zm-3.79-14.4c-1.85,0-3.34,1.49-3.34,3.4s1.37,3.36,3.09,3.42c1.82.06,3.43-1.61,3.46-3.55.03-1.84-1.39-3.3-3.21-3.27Z"/>
              <path class="cls-9" d="m460.08,100.28c-.51-.06-1.03-.15-1.51-.24-.55-.09-1.06-.18-1.58-.33-1.85-.52-3.58-.31-5.19.66-3.69,2.25-6.06,5.46-6.69,9.8-.55,3.69,1.12,6.6,4.63,7.82,1.76.6,3.67.85,5.52,1.24,1.18.03,2.27-.12,3.31-.48,1.33-.43,2.51-1.19,3.6-2.25,2.34-2.24,3.55-5.06,4.01-8.21.57-4.01-2.07-7.43-6.1-8.01Zm-1.3,8.58c-.06.22-.15.4-.21.58-.79,2-1.64,2.7-3.25,2.61-3.48-.19-4-1.19-2.27-4.25.12-.21.27-.45.42-.67,1.7-2.51,2.03-2.51,4.49-.78.27.18.45.36.61.54.45.55.51,1.15.21,1.97Z"/>
              <path class="cls-9" d="m484.76,100.01c-2.28-4.34-5.85-5-9-1.91-.91.91-1.7,2-2.67,3.18-.15-.48-.24-.78-.31-1.09-.39-1.79-.97-3.45-2.51-3.39-1.67.09-2.15,1.97-2.25,3.85-.33,5.27-.6,10.58-.69,15.85-.06,2.94,1.36,4.97,3.15,5.28,1.82.27,3.37-1.34,3.85-4.28.67-4.06,2.24-7.46,4.06-10.67.31-.54.73-.91,1.31-1.64.18,1.49.3,2.49.39,3.49.3,2.73.42,5.55.91,8.22.42,2.3,1.82,3.51,3.24,3.39,1.34-.09,2.61-1.45,2.85-3.76.64-5.88.31-11.61-2.33-16.52Z"/>
              <path class="cls-9" d="m511.19,113.62c-.72-3.55-1.24-7.15-1.91-10.7-.24-1.15-.51-2.61-1.21-3.24-2.09-1.88-4.39-3.49-7.27-2.85-5.04,1.09-9.86,7.73-10.19,14.06-.3,5.92,3.73,9.95,8.58,8.46,1.3-.39,2.48-1.3,3.7-2.03.42-.24.75-.64,1.18-1,.21.3.39.52.51.76,1.49,2.54,3.34,3.48,5.07,2.58,1.67-.85,2.12-2.98,1.54-6.04Zm-12.49-1.67c-.48.25-1.21.28-1.63.04-.21-.16-.25-1.19-.09-1.73.88-3.16,2.36-5.73,5.21-7.19.61,3.88-.88,7.64-3.49,8.88Z"/>
              <path class="cls-9" d="m523.23,87.55c-.12-1.58-.24-3.24-.94-4.61-.49-.97-1.91-2.03-2.91-2.03-1-.03-2.24,1.06-3,1.97-.61.73-.76,1.91-.85,2.91-.55,6-1.03,25.07-.94,28.56.03,1.49.24,3.03.64,4.46.63,2.3,2.27,3.63,4.15,3.73,1.91.06,3.76-1.13,4.33-3.49.64-2.55,1.1-5.25,1.01-7.88-.34-7.89-.92-15.77-1.49-23.62Z"/>
            </g>
            <g>
              <path class="cls-9" d="m366.5,133.87c-.34.28-.85.49-.94.85-.28.85-.4,1.79-.46,2.67-.18,2.73-.27,5.46-.42,8.37-.24-.25-.34-.37-.46-.46-2.79-2.79-7.03-2.15-8.76,1.46-.72,1.51-1.09,3.27-1.36,4.97-.15.79.12,1.76.45,2.52,1.22,2.69,4.94,3.72,7.55,2.18.73-.46,1.43-.97,2.27-1.55.07.79.07,1.4.16,2.03.09.7.48,1.16,1.15,1.19.7,0,1.06-.46,1.18-1.16.03-.24.03-.48.03-.75.06-7.04.12-14.1.15-21.16,0-.4-.36-.79-.54-1.16Zm-4.03,18.95c-.94.67-1.76,1.61-2.98,1.49-2.42-.06-3.24-1.1-2.78-3.58.15-.79.39-1.55.69-2.27.76-1.67,1.79-2.34,3.22-2.13,1.75.25,2.66,1.12,3.09,2.97,0,.06,0,.13.03.19.36,2.12.39,2.15-1.27,3.33Z"/>
              <path class="cls-9" d="m372.29,149.73c1.48-.03,2.97-.03,4.45-.06,1.88-.03,3.04-.82,3.37-2.25.54-2.21-.55-4.54-2.61-5.54-2.12-1.03-4.15-.55-5.61,1.39-1.6,2.15-2.42,4.64-2.36,7.37.06,2.45,1.15,4.39,3.27,5.58,2.19,1.21,4.43,1.12,6.58-.1.37-.21.76-.87.67-1.24-.06-.33-.73-.7-1.15-.73-.82-.06-1.61.16-2.4.25-2.67.27-4.7-1.85-4.33-4.58.09-.06.09-.09.12-.09Zm1.88-5.46c.72-.73,1.82-.67,2.82,0,.72.52,1.27,1.85.94,2.58-.16.3-.64.6-1,.63-1.46.13-2.95.16-4.52.19.39-1.31.82-2.49,1.76-3.4Z"/>
            </g>
            <g>
              <g>
                <path class="cls-9" d="m422.95,123.47c-.98-.63-2.22-.42-3.01.73-1.12,1.64-2.24,3.31-3.18,5.07-.27.51-.36,1-.3,1.39.15.79.88,1.3,2.12,1.3.36-.21,1.18-.51,1.67-1.09l.09-.09c1.09-1.33,2.09-2.76,3.03-4.21.82-1.22.61-2.43-.42-3.1Z"/>
                <path class="cls-9" d="m451.93,133.45c-1-.97-2.34-.73-3.25.57-.78,1.19-1.45,2.4-2,3.64-1.06,2.52-2.06,5.1-3.06,7.61-.36.94-.73,1.88-1.12,2.82-.24.67-.52,1.34-.82,2.06l-.85,2.19-.27-.91c-.34-1.03-.61-2.04-.91-3.04-.61-2.12-1.18-4.15-1.94-6.03-1.24-3.15-2.73-6.12-4.31-9.15-.39-.82-.97-1.25-1.6-1.31-.27-.03-.6.06-.9.23,0,.01-.01.01-.01.01-.03,0-.03.04-.06.04-.91.54-1.34,1.72-1.16,3.21.07.67.19,1.3.37,1.94.3.3.61.64.85.97h.01c2.75,3.25,4.41,7.43,4.41,12,0,1.34-.15,2.64-.42,3.88.48,1.79.97,3.58,1.48,5.37.37,1.21.73,2.18,1.19,2.94.54.91,1.3,1.43,2.12,1.46.85,0,1.67-.52,2.3-1.46.31-.48.61-1.06.97-1.91,2.88-6.91,5.73-13.85,8.61-20.77l.88-2.12c.67-1.63.46-3.27-.51-4.24Z"/>
                <path class="cls-9" d="m468.33,156.58c-.55.03-1.09.18-1.67.33-.46.12-.91.25-1.36.34-1.85.27-3.46.48-4.97.57-.37.03-.73-.24-.92-.39-.15-.15-.45-.46-.48-.82-.06-1.12-.06-2.27-.03-3.4v-1.57l.39-.03c.79-.03,1.55-.06,2.31-.09,1.85-.09,3.57-.15,5.33-.31.85-.09,1.79-.36,2.73-.81.76-.4,1.61-1.13,1.52-2.46-.09-1.12-.79-1.91-1.85-2.12-1.27-.31-2.7-.37-4.19-.25-1.18.1-2.33.34-3.57.58-.58.12-1.12.21-1.73.33l-.52.1v-5.04c0-1.03,0-1.54.4-1.91.33-.33.85-.3,1.88-.27l1.06.06c1.61.09,3.3.18,4.94.09,2.55-.15,4.31-1.64,4.24-3.64-.03-.88-.42-1.69-1.09-2.3-.76-.7-1.82-1.06-3.03-1.06h-.3c-2.52.12-5.06.48-7.52.85l-1.33.18-.4.06c-.64.09-1.27.39-1.82.7-1.63.91-2.24,1.97-1.94,3.48.09.37.03.7-.03,1.03l-.03.19c-.21,1.15-.42,2.3-.63,3.45-.43,2.4-.85,4.88-1.22,7.34-.42,2.91-.79,6.33.12,9.64.73,2.61,2.28,4.15,4.64,4.64.46.09.88.15,1.31.21,3.54.48,6.85,0,9.88-1.49.76-.39,1.48-.94,2.06-1.54.97-1.06,1.18-2.12.67-3.18-.61-1.34-1.91-1.58-2.85-1.49Z"/>
                <path class="cls-9" d="m498.1,139.12l-.09-3.4c-.03-.91-.12-1.79-.31-2.6-.33-1.52-1.36-2.61-2.6-2.73-1.34-.12-2.52.78-2.94,2.27-.34,1.15-.49,2.4-.49,3.58,0,3.18.09,6.39.15,9.52.03,1.27.06,2.54.06,3.82.03.33.03.66,0,.97v.75l-.88.46-1.85-2.55c-1.21-1.66-2.42-3.3-3.63-5-.7-.97-1.4-1.94-2.06-2.88-1.22-1.73-2.49-3.49-3.76-5.18-.52-.73-1.25-1.4-1.97-1.85-.55-.31-1.1-.49-1.64-.46-.33.03-.64.09-.94.25-.82.39-1.46,1.18-1.79,2.27-.18.67-.3,1.3-.3,1.88-.19,6.64.33,13.73,1.57,22.28.1.61.37,1.27.73,1.94.42.7,1.03,1.09,1.61,1.03.6-.06,1.12-.57,1.39-1.39.24-.64.37-1.34.37-1.91-.03-3.46-.1-6.98-.13-10.37l-.06-2.7c0-.3,0-.61-.03-.91l-.06-1.36.64.51c.52.43.85.91,1.12,1.34l.18.24c.55.82,1.09,1.64,1.64,2.42,1.3,1.98,2.64,4.01,4.12,5.83,1.25,1.54,3.13,3.72,5.34,5.03,2.09,1.27,3.85,1.48,5.12.57,1.25-.91,1.91-2.94,1.88-5.73-.09-5.3-.24-10.73-.39-15.94Z"/>
                <path class="cls-9" d="m516.59,153.73c-.54.03-1.09.18-1.67.36-.42.12-.88.25-1.36.31-1.82.3-3.46.48-4.97.57-.37.03-.7-.21-.88-.39-.18-.15-.49-.46-.52-.79-.06-1.15-.06-2.3-.03-3.39v-1.61h.43c.75-.06,1.51-.09,2.27-.12,1.85-.06,3.61-.15,5.37-.31.84-.06,1.78-.36,2.7-.81.75-.37,1.6-1.1,1.51-2.46-.09-1.09-.79-1.91-1.85-2.12-1.27-.28-2.7-.37-4.15-.24-1.18.12-2.37.33-3.61.57-.58.12-1.12.24-1.73.33l-.48.1-.03-1.97c0-1.07,0-2.07.03-3.07,0-1.03,0-1.54.36-1.88.36-.36.88-.33,1.88-.27l1.06.06c1.64.06,3.31.15,4.94.06,2.58-.15,4.31-1.63,4.25-3.64-.03-.88-.43-1.66-1.06-2.27-.79-.73-1.85-1.09-3.07-1.09h-.3c-2.49.15-5.03.51-7.52.85l-1.72.24c-.64.09-1.28.42-1.82.7-1.64.91-2.25,1.97-1.91,3.48.06.37,0,.73-.06,1.03l-.04.19c-.21,1.15-.39,2.3-.6,3.45-.43,2.4-.88,4.88-1.24,7.34-.4,2.94-.79,6.33.15,9.67.69,2.58,2.27,4.12,4.6,4.61,4.04.82,7.83.39,11.22-1.28.76-.36,1.49-.9,2.06-1.54.94-1.03,1.16-2.09.67-3.18-.64-1.34-1.91-1.55-2.88-1.49Z"/>
                <path class="cls-9" d="m544.57,152.61c-1.09-4.55-4.12-7.73-9.24-9.79-1.85-.73-3.58-1.79-5.25-2.82l-1.06-.64c-.64-.36-1-.91-1-1.49.03-.57.39-1.12,1.03-1.48,1.15-.67,2.55-1.4,4-1.7,3.03-.67,5.91.27,7.79,1.03.76.31,1.4.34,1.76.06.46-.3.52-1.03.49-1.57-.03-.82-.28-1.7-.7-2.37-1.06-1.76-2.7-2.88-4.91-3.39-4.94-1.16-9.46-.12-13.37,3.09-1.97,1.64-3.15,3.82-3.27,6.15-.13,2.37.84,4.7,2.69,6.58,2.67,2.7,5.55,4.52,8.85,5.52,1.64.48,3.28,1.21,4.13,3.21l.21.52-1.55.45c-1.94.58-3.69.06-5.39-.39-.43-.12-.85-.24-1.28-.34-.48-.12-.94-.18-1.39-.18-1.64,0-3.03.73-3.79,2-.94,1.61-.55,3.73.97,5.43,1.39,1.55,3.76,3.4,6.73,3.27,3.34-.12,6.12-.6,8.49-1.39,4.15-1.43,6.15-5.28,5.06-9.76Z"/>
              </g>
              <path class="cls-9" d="m407.84,130.75c-.29,1.44-1.69,2.38-3.14,2.09-1.54-.31-3.07-.49-4.58-.55.33,2.11.48,4.27.63,6.38.05.68.09,1.35.15,2.02-1.7,2.8-2.68,6.09-2.68,9.61,0,2.58.53,5.04,1.48,7.28-.9,2.78-2.59,5.05-4.9,6.54-2.83,1.82-6.29,2.22-9.75,1.15-1.38-.43-2.88-1.39-4.23-2.71-1.35-1.33-1.2-3.33-.36-4.62.7-1.07,1.86-1.66,3.18-1.66.41,0,.85.06,1.28.18.52.14,1.03.34,1.56.56.39.15.78.31,1.17.44,1.42.47,2.55.48,3.45.03.82-.42,1.43-1.23,1.8-2.41.81-2.54,1.2-4.87,1.14-6.9-.1-3.32-.42-6.68-.72-9.93-.13-1.31-.25-2.62-.36-3.93-.02-.23-.05-.46-.09-.69-.03-.21-.06-.42-.08-.62-.89.19-1.92.43-3.19.72-2.1.49-4.21,1.03-6.25,1.62-.24.07-.5.11-.74.11-1.16,0-2.22-.76-2.56-1.93-.41-1.42.41-2.89,1.82-3.3,2.14-.61,4.33-1.18,6.52-1.69,3.47-.81,5.38-1.25,7.78-1.46,3.12-.28,6.34-.1,9.57.55,1.44.29,2.38,1.69,2.09,3.13Z"/>
              <g>
                <path class="cls-1" d="m416.85,138.51c-6.64-.03-12.03,5.34-12.06,12.01,0,6.64,5.36,12,12,12.03,6.64.03,12.04-5.33,12.07-12,0-6.64-5.37-12.01-12.01-12.04Zm-.06,21.04c-4.97-.03-9-4.09-9-9.06.03-4.98,4.09-8.98,9.09-8.98,4.94.03,8.98,4.1,8.94,9.04,0,4.97-4.09,9.03-9.03,9Z"/>
                <path class="cls-9" d="m430.9,141.81s-.01-.01-.01-.02c-2.91-4.73-8.16-7.89-14.13-7.89-9.19,0-16.64,7.43-16.64,16.65s7.45,16.64,16.64,16.64c5.97,0,11.22-3.15,14.13-7.88,0-.01.01-.01.01-.02,1.59-2.55,2.5-5.54,2.5-8.74s-.91-6.2-2.5-8.74Zm-14.08,22.74c-7.73,0-14.04-6.27-14.04-14s6.31-14.07,14.04-14.04c7.73,0,14.04,6.31,14.04,14.04-.03,7.73-6.31,14-14.04,14Z"/>
                <path class="cls-9" d="m416.82,143.51c-3.88,0-7,3.13-7,7.01-.03,3.88,3.09,7.03,7,7.03s7-3.12,7-7.03-3.12-7.01-7-7.01Zm1.12,11.52c-.63.03-1.09-.39-1.12-.97-.03-.57.4-1,1.03-1.03,1.12-.06,1.91-.85,1.97-1.97.03-.63.46-1.06,1.03-1.03.58,0,.97.46.97,1.12-.03,2.06-1.82,3.85-3.88,3.88Z"/>
              </g>
            </g>
          </g>
          <g>
            <path class="cls-9" d="m488.02,70.87c-.27-.16-.6-.24-.98-.24-.38,0-.73.07-1.04.21-.31.15-.57.35-.79.62-.22.27-.38.57-.49.91-.11.34-.17.71-.18,1.09,0,.36.06.68.21.96.14.28.35.5.62.65s.6.24.98.24c.39,0,.74-.07,1.04-.21s.56-.35.78-.62c.22-.27.38-.57.49-.91.11-.34.17-.71.18-1.09,0-.37-.06-.69-.21-.96-.14-.27-.35-.49-.62-.65Z"/>
            <path class="cls-9" d="m474.96,72.76l1.3.02c.44,0,.78-.1,1.02-.32.24-.22.37-.52.37-.91,0-.34-.1-.58-.31-.74-.21-.15-.5-.23-.86-.23h-1.06s-.47,2.18-.47,2.18Z"/>
            <path class="cls-9" d="m498.22,63.48c-3.52-5.73-10.07-6.12-39.05-5.4h-.02c-5.64.13-12.14.31-19.62.49-3.23.09-6.25.15-9.09.21h-.04c-21.67.61-32.56,1.58-36.65,9.22-.48.91-2.82,5.54-.97,9.85,3.09,7.31,15.04,6.52,38.11,7.21h.01c5.39.19,11.42.43,18.06.85,3.45.22,6.63.49,9.61.73,22.58,1.97,31.61,4.25,37.47-2.52,4.57-5.27,5.91-14.58,2.18-20.64Zm-47.69,7.79l-.48,2.27-3.97-.03-.28,1.22,4.73.06-.51,2.39-7.83-.12,2.01-9.34,7.64.09-.52,2.37-4.52-.06-.24,1.12,3.97.03Zm-14.67,2.91c.21.3.55.46,1.06.49.46,0,.82-.16,1.06-.43.27-.3.49-.79.64-1.48l1.09-5.1,3.12.03-1.15,5.28c-.27,1.39-.88,2.45-1.73,3.18-.88.73-2.03,1.09-3.45,1.06-.97,0-1.79-.21-2.46-.57-.64-.4-1.09-.91-1.36-1.58-.25-.67-.31-1.45-.09-2.33l1.09-5.16,3.15.03-1.06,5.1c-.15.66-.12,1.15.09,1.48Zm-13.55-6.76l-2,9.37-2.61-.03-2.64-4.43-.91,4.37-3.09-.03,2-9.37,2.61.03,2.64,4.4.94-4.34,3.06.03Zm-18.28-.24l7.64.09-.52,2.39-4.52-.06-.24,1.09,3.97.07-.48,2.27-3.97-.06-.27,1.24,4.72.06-.51,2.37-7.82-.09,2-9.37Zm25.49,9.52c-.69.27-1.48.39-2.33.39-.97-.03-1.82-.21-2.55-.57-.69-.37-1.27-.85-1.66-1.49-.37-.64-.58-1.36-.55-2.21,0-.82.15-1.58.45-2.25.31-.69.73-1.27,1.25-1.78.54-.49,1.18-.85,1.91-1.13.72-.27,1.51-.39,2.39-.36.88,0,1.7.18,2.4.51.03,0,.03.04.06.04h.01c.65.31,1.11.78,1.44,1.36l-1.44,1.11h-.01s-.85.65-.85.65c-.18-.37-.43-.64-.76-.82-.3-.21-.67-.3-1.09-.3-.36,0-.73.06-1.03.18-.3.15-.58.33-.82.57-.21.28-.39.58-.52.91-.15.37-.21.73-.21,1.16,0,.36.06.69.25.97.15.27.36.48.66.66.27.15.61.21,1,.24.37,0,.73-.09,1.09-.24.34-.18.7-.45,1-.82l1.28,1.25h.01s.56.54.56.54c-.18.21-.35.42-.56.57h-.01c-.43.4-.88.71-1.37.86Zm25.71-3.82l-.91,4.36-3.09-.06,2-9.33,2.61.03,2.63,4.39.1-.42.84-3.94,3.07.06-2,9.33-1.91-.03h-.7l-2.64-4.39Zm24.59,4.7l-3.31-.06-1.3-2.37h-.76l-.51,2.34-3.16-.03,2-9.37,4.22.06c1.24,0,2.21.3,2.88.85.67.54,1,1.3.97,2.27,0,.79-.21,1.49-.61,2.06-.39.61-.94,1.06-1.67,1.37-.09.06-.18.09-.3.12l1.55,2.76Zm-8.37-7.07l-2.76-.03-1.48,6.91-3.16-.03,1.49-6.91-2.76-.03.51-2.45,8.68.12-.52,2.42Zm20.59,1.82c0,.82-.16,1.58-.46,2.28-.3.66-.73,1.27-1.24,1.75-.55.49-1.19.88-1.91,1.13-.73.27-1.52.39-2.37.39-.97-.03-1.82-.21-2.51-.58-.73-.36-1.28-.88-1.64-1.51-.39-.64-.58-1.37-.55-2.18,0-.82.16-1.58.46-2.28.3-.67.73-1.24,1.24-1.76.55-.48,1.18-.85,1.91-1.12.73-.27,1.52-.39,2.37-.39.97.03,1.81.21,2.51.57.73.37,1.27.88,1.64,1.52.36.61.55,1.27.55,2v.18Z"/>
          </g>
        </g>
      </g>
      <rect class="cls-9" x="61.73" y="65.04" width="170.45" height="63.83"/>
      <g>
        <g>
          <path class="cls-1" d="m80.14,87.47c-.48-.8-1.11-1.45-1.88-1.94-.78-.49-1.63-.89-2.55-1.18-.92-.3-1.84-.54-2.77-.74s-1.78-.39-2.55-.57c-.76-.19-1.39-.43-1.87-.73-.48-.29-.72-.7-.72-1.23,0-.35.12-.68.36-.98.24-.31.63-.56,1.18-.76.55-.2,1.27-.29,2.17-.29,1.01,0,2.04.14,3.12.42,1.07.29,2.15.74,3.25,1.35l1.97-4.79c-1.12-.68-2.4-1.19-3.86-1.53-1.46-.34-2.94-.51-4.45-.51-2.25,0-4.13.34-5.64,1.02-1.52.68-2.65,1.57-3.39,2.69-.34.51-.6,1.05-.78,1.61-.22.66-.33,1.36-.33,2.1,0,.85.11,1.6.33,2.24.1.29.22.56.37.81.47.81,1.09,1.47,1.86,1.97.76.51,1.62.91,2.56,1.22s1.86.55,2.77.74c.91.18,1.75.38,2.53.59.78.21,1.41.46,1.89.75.48.3.72.7.72,1.2,0,.4-.13.74-.38,1.02-.25.28-.64.5-1.18.66-.54.15-1.26.23-2.18.23-1.34,0-2.68-.22-4.02-.64-1.35-.43-2.54-.97-3.57-1.63l-1.37,3.11-.76,1.72c.24.16.49.31.76.46.95.52,2.1.96,3.46,1.33,1.74.47,3.56.7,5.47.7,2.27,0,4.16-.34,5.67-1.02,1.52-.67,2.65-1.58,3.4-2.71.76-1.12,1.14-2.35,1.14-3.69,0-1.2-.25-2.2-.73-3Z"/>
          <path class="cls-1" d="m97.83,81.31c-1.59-1.33-3.83-2-6.72-2-1.4,0-2.81.19-4.22.56-1.41.37-2.62.88-3.63,1.54l2.07,4.2c.61-.43,1.37-.79,2.25-1.08.89-.29,1.76-.43,2.61-.43,1.32,0,2.27.27,2.87.81.55.48.85,1.15.9,2.02,0,.08,0,.17,0,.26v6.11l.43.82v3.31h5.81v-9.88c0-2.82-.8-4.9-2.38-6.24Zm-3.86,10.41c-.24.7-.64,1.22-1.2,1.56-.56.34-1.19.51-1.89.51s-1.29-.17-1.71-.51c-.41-.34-.62-.77-.62-1.3,0-.57.2-1,.61-1.31.4-.31,1.11-.46,2.12-.46h3.34v-3.28h-4.2c-1.81,0-3.31.21-4.48.64-1.17.42-2.04,1.04-2.59,1.85-.56.81-.84,1.76-.84,2.86,0,1.01.26,1.92.77,2.76.51.83,1.27,1.48,2.27,1.97.99.48,2.19.72,3.59.72,1.56,0,2.81-.31,3.76-.94.64-.42,1.15-.98,1.5-1.68.18-.33.31-.69.42-1.09l-.85-2.3Z"/>
          <path class="cls-1" d="m122.12,82.76c-.64-1.16-1.53-2.03-2.64-2.6-1.12-.57-2.37-.85-3.74-.85-1.49,0-2.83.33-4.01,1-.6.34-1.14.76-1.61,1.26v-1.96h-5.97v17.82h6.23v-8.57c0-1,.15-1.81.46-2.43.31-.61.74-1.06,1.28-1.36.55-.29,1.16-.44,1.84-.44.88,0,1.57.29,2.09.87.51.58.77,1.5.77,2.77v9.16h6.27v-10.17c0-1.84-.32-3.34-.97-4.5Z"/>
          <path class="cls-1" d="m136.36,74.45v5.05h7.91v9.86c0,2.21-.95,3.31-2.86,3.31-.72,0-1.41-.2-2.07-.6-.65-.41-1.29-1.01-1.9-1.8l-3.55,4.24c.92,1.1,2.07,1.93,3.43,2.51,1.37.58,2.89.87,4.55.87,2.89,0,5.09-.73,6.6-2.21,1.51-1.48,2.27-3.71,2.27-6.68v-14.55h-14.38Z"/>
          <path class="cls-1" d="m167.28,79.61v8.63c0,.96-.14,1.76-.42,2.38-.29.62-.69,1.08-1.2,1.36-.52.29-1.08.43-1.69.43-.94,0-1.67-.3-2.19-.9-.51-.6-.77-1.6-.77-2.98v-8.92h-6.24v9.94c0,1.89.33,3.43.97,4.65.65,1.21,1.55,2.11,2.7,2.67,1.14.58,2.44.86,3.89.86,1.35,0,2.61-.32,3.76-.97.57-.32,1.08-.72,1.52-1.21v1.88h5.91v-17.82h-6.24Z"/>
          <path class="cls-1" d="m191.86,81.31c-1.59-1.33-3.83-2-6.71-2-1.4,0-2.81.19-4.22.56-.35.09-.7.19-1.02.3-.99.33-1.85.75-2.61,1.24l2.07,4.2c.17-.12.35-.23.54-.34.5-.28,1.07-.53,1.71-.74.88-.29,1.76-.43,2.61-.43,1.31,0,2.27.27,2.87.81.55.48.84,1.15.89,2.02.01.08.01.17.01.26v6.11l.43.82v3.31h5.81v-9.88c0-2.82-.79-4.9-2.38-6.24Zm-3.86,10.41c-.24.7-.64,1.22-1.19,1.56-.56.34-1.19.51-1.89.51s-1.3-.17-1.71-.51c-.42-.34-.63-.77-.63-1.3,0-.57.21-1,.61-1.31.41-.31,1.11-.46,2.12-.46h3.35v-3.28h-4.2c-1.82,0-3.31.21-4.48.64-.02.01-.05.02-.07.03-1.14.42-1.98,1.03-2.53,1.82-.56.81-.83,1.76-.83,2.86,0,1.01.25,1.92.76,2.76.52.83,1.27,1.48,2.27,1.97l.33.15c.93.38,2.02.57,3.27.57,1.55,0,2.8-.31,3.76-.94.64-.42,1.14-.97,1.49-1.66.18-.34.32-.71.43-1.11l-.86-2.3Z"/>
          <path class="cls-1" d="m216.16,82.76c-.65-1.16-1.53-2.03-2.64-2.6-1.12-.57-2.37-.85-3.75-.85-1.49,0-2.82.33-4,1-.6.34-1.14.76-1.61,1.25v-1.95h-5.98v17.82h6.24v-8.57c0-1,.15-1.81.46-2.43.31-.61.73-1.06,1.28-1.36.55-.29,1.16-.44,1.84-.44.87,0,1.57.29,2.08.87.52.58.78,1.5.78,2.77v9.16h6.27v-10.17c0-1.84-.32-3.34-.97-4.5Z"/>
        </g>
        <g>
          <path class="cls-5" d="m68.66,102.55v5.46l.19,3.36-.02,3.35v1.75h3.4v-13.92h-3.57Zm.79,5.87c-.2-.5-.45-.91-.79-1.24-.17-.19-.37-.36-.6-.5-.61-.38-1.35-.57-2.21-.57-.91,0-1.75.22-2.51.65-.66.37-1.2.88-1.61,1.51-.08.1-.14.2-.2.31-.45.78-.67,1.72-.67,2.8s.22,2.01.67,2.79c.06.11.12.21.2.31.41.63.95,1.14,1.61,1.51.76.43,1.6.65,2.51.65s1.67-.19,2.28-.57c.27-.17.51-.37.7-.62.27-.31.48-.67.65-1.1.29-.78.44-1.76.44-2.97s-.16-2.18-.47-2.96Zm-1.01,4.27c-.19.37-.44.64-.76.83s-.68.28-1.08.28-.78-.09-1.1-.28c-.31-.19-.57-.46-.76-.83s-.28-.81-.28-1.31c0-.53.09-.98.28-1.33s.45-.62.76-.8c.32-.19.69-.29,1.1-.29s.76.1,1.08.29c.32.18.57.45.76.8s.28.8.28,1.33c0,.5-.09.94-.28,1.31Z"/>
          <path class="cls-5" d="m84.16,108.54c-.49-.78-1.15-1.38-1.96-1.8-.82-.42-1.73-.63-2.73-.63-1.08,0-2.04.23-2.88.68-.85.45-1.51,1.07-1.99,1.86-.48.8-.72,1.71-.72,2.73s.24,1.9.74,2.69c.49.8,1.18,1.43,2.08,1.88.89.46,1.95.69,3.16.69.96,0,1.8-.14,2.51-.43.72-.28,1.31-.68,1.79-1.21l-1.86-1.96c-.35.29-.7.52-1.05.66-.35.14-.78.21-1.29.21-.54,0-1.01-.09-1.39-.29-.39-.19-.69-.47-.89-.83-.09-.16-.16-.33-.21-.51h7.38c.01-.13.03-.28.04-.45.01-.16.02-.3.02-.43,0-1.12-.25-2.08-.75-2.86Zm-6.75,1.87c.04-.24.11-.46.21-.67.17-.34.41-.61.74-.79.33-.19.71-.28,1.15-.28s.79.09,1.1.28c.31.18.56.45.74.79.1.21.18.43.21.67h-4.15Z"/>
          <path class="cls-5" d="m92.01,102.55v13.92h3.57v-13.92h-3.57Z"/>
          <path class="cls-5" d="m108,108.65c-.49-.79-1.18-1.41-2.04-1.86-.87-.45-1.86-.68-2.97-.68s-2.11.23-2.97.68c-.86.45-1.54,1.07-2.04,1.86-.49.8-.74,1.71-.74,2.73s.25,1.92.74,2.72c.5.79,1.18,1.41,2.04,1.86.86.45,1.85.68,2.97.68s2.1-.23,2.97-.68c.86-.45,1.55-1.07,2.04-1.86.49-.8.74-1.7.74-2.72s-.25-1.93-.74-2.73Zm-3.17,4.04c-.19.37-.45.64-.77.83s-.68.28-1.07.28c-.41,0-.77-.09-1.09-.28-.31-.19-.57-.46-.76-.83-.2-.37-.3-.81-.3-1.32s.1-.97.3-1.32c.19-.35.45-.62.76-.8.32-.19.68-.29,1.09-.29s.75.1,1.07.29c.32.18.58.45.77.8s.29.79.29,1.32-.1.95-.29,1.32Z"/>
          <path class="cls-5" d="m118.77,111.88c-.22-.37-.51-.66-.86-.88-.34-.22-.73-.39-1.16-.5-.42-.11-.85-.19-1.28-.25-.43-.06-.82-.11-1.17-.17-.36-.06-.64-.14-.87-.25-.22-.1-.33-.25-.33-.45s.12-.37.38-.5c.25-.13.68-.2,1.28-.2.44,0,.91.05,1.41.15.5.1,1,.3,1.5.6l1.07-2.43c-.5-.29-1.12-.51-1.85-.66-.73-.15-1.45-.23-2.16-.23-1.08,0-1.98.15-2.71.45-.73.3-1.29.71-1.67,1.21-.38.51-.57,1.09-.57,1.74,0,.57.1,1.05.31,1.42.22.38.5.67.86.89.35.21.75.37,1.19.49s.86.21,1.28.26c.42.06.81.11,1.18.15.36.05.64.12.86.22.21.1.32.24.32.43,0,.23-.12.41-.35.54s-.65.19-1.25.19-1.24-.08-1.87-.26c-.64-.17-1.2-.41-1.69-.69l-1.05,2.43c.5.31,1.16.55,1.98.76.82.19,1.66.3,2.52.3,1.1,0,2.03-.16,2.78-.45.75-.3,1.31-.71,1.68-1.2.38-.5.57-1.06.57-1.67s-.11-1.07-.33-1.44Z"/>
          <path class="cls-5" d="m141.51,103.34h-3.06l-4.51,7.59-4.61-7.59h-3.05v13.13h3.41v-6.78l3.36,5.48h1.65l3.38-5.67.03,6.97h3.42l-.02-13.13Z"/>
          <path class="cls-5" d="m154.12,108.65c-.47-.74-1.09-1.33-1.87-1.76-.06-.04-.11-.07-.17-.1-.87-.45-1.87-.68-2.98-.68s-2.1.23-2.96.68-1.54,1.07-2.04,1.86c-.49.8-.74,1.71-.74,2.73s.25,1.92.74,2.72c.5.79,1.18,1.41,2.04,1.86.86.45,1.85.68,2.96.68s2.11-.23,2.98-.68c.06-.03.11-.06.17-.1.78-.43,1.4-1.02,1.87-1.76.49-.8.74-1.7.74-2.72s-.25-1.93-.74-2.73Zm-3.17,4.04c-.19.37-.45.64-.77.83-.32.19-.68.28-1.08.28s-.76-.09-1.08-.28c-.31-.19-.57-.46-.76-.83-.2-.37-.3-.81-.3-1.32s.1-.97.3-1.32c.19-.35.45-.62.76-.8.32-.19.68-.29,1.08-.29s.76.1,1.08.29c.32.18.58.45.77.8.19.35.29.79.29,1.32s-.1.95-.29,1.32Z"/>
          <path class="cls-5" d="m160.85,106.69c-.37.22-.69.5-.94.84v-1.25h-3.42v10.19h3.57v-4.67c0-.89.22-1.53.67-1.93.45-.39,1.04-.59,1.77-.59.12,0,.25.01.37.01.13.01.27.02.43.05v-3.23c-.96,0-1.78.2-2.45.58Z"/>
          <path class="cls-5" d="m168.98,106.69c-.38.22-.7.5-.95.84v-1.25h-3.42v10.19h3.57v-4.67c0-.89.22-1.53.67-1.93.45-.39,1.04-.59,1.77-.59.12,0,.25.01.37.01.13.01.27.02.43.05v-3.23c-.96,0-1.78.2-2.44.58Z"/>
          <path class="cls-5" d="m182.76,108.65c-.5-.79-1.18-1.41-2.04-1.86-.26-.13-.53-.25-.81-.34-.66-.23-1.39-.34-2.17-.34-1.11,0-2.1.23-2.96.68-.86.45-1.54,1.07-2.04,1.86-.49.8-.74,1.71-.74,2.73s.25,1.92.74,2.72c.5.79,1.18,1.41,2.04,1.86.86.45,1.85.68,2.96.68.78,0,1.51-.11,2.17-.34.28-.09.55-.21.81-.34.86-.45,1.54-1.07,2.04-1.86.49-.8.74-1.7.74-2.72s-.25-1.93-.74-2.73Zm-3.17,4.04c-.19.37-.45.64-.77.83-.32.19-.68.28-1.08.28s-.76-.09-1.08-.28c-.31-.19-.57-.46-.76-.83-.2-.37-.3-.81-.3-1.32s.1-.97.3-1.32c.19-.35.45-.62.76-.8.32-.19.68-.29,1.08-.29s.76.1,1.08.29c.32.18.58.45.77.8.19.35.29.79.29,1.32s-.1.95-.29,1.32Z"/>
          <path class="cls-5" d="m193.52,111.88c-.21-.37-.5-.66-.85-.88-.35-.22-.74-.39-1.16-.5-.43-.11-.85-.19-1.29-.25-.43-.06-.82-.11-1.17-.17-.35-.06-.64-.14-.86-.25-.23-.1-.34-.25-.34-.45s.13-.37.39-.5c.25-.13.68-.2,1.28-.2.44,0,.91.05,1.41.15.5.1,1,.3,1.5.6l1.07-2.43c-.5-.29-1.12-.51-1.85-.66-.73-.15-1.45-.23-2.17-.23-1.07,0-1.97.15-2.71.45-.73.3-1.28.71-1.67,1.21-.38.51-.57,1.09-.57,1.74,0,.57.11,1.05.32,1.42.21.38.5.67.86.89.35.21.75.37,1.19.49.43.12.86.21,1.28.26.42.06.81.11,1.17.15.36.05.65.12.86.22.22.1.32.24.32.43,0,.23-.11.41-.34.54s-.65.19-1.25.19-1.24-.08-1.88-.26c-.63-.17-1.2-.41-1.68-.69l-1.05,2.43c.5.31,1.16.55,1.97.76.82.19,1.66.3,2.53.3,1.1,0,2.02-.16,2.77-.45.75-.3,1.32-.71,1.69-1.2.38-.5.56-1.06.56-1.67s-.11-1.07-.33-1.44Z"/>
        </g>
      </g>
    </g>
    <g>
      <path class="cls-5" d="m363.31,587.6c.75.25,1.58.27,2.43.4,6.03-1,12.1-1.98,18.15-3.05,1.33-.23,2.5-1.02,2.37-2.6-.12-1.4-1.34-1.71-2.48-1.88-1.12-.17-2.26-.35-3.37-.3-3.88.19-7.76.42-11.62.75-1.78.14-3.53.51-5.27.85-1.33.27-2.54.84-2.51,2.47.03,1.58.75,2.82,2.31,3.36Z"/>
      <path class="cls-5" d="m366.5,635.45c.95.71,1.85.36,2.05-.93.04-1.25-.52-2.24-1.12-3.2-2.41-3.84-4.82-7.66-7.28-11.45-.78-1.19-1.63-2.74-3.33-2.29-1.88.49-1.85,2.45-2.24,3.97-.25.96.08,1.94.59,2.78,2.83,4.66,7.04,7.95,11.33,11.12Z"/>
      <path class="cls-5" d="m365.44,601.41c-1.81-.28-3.77-.17-4.23,2.13-.4,1.98,1.09,2.93,2.67,3.51,3.98,1.46,8.16,1.99,12.44,2.6,1.11-.14,2.74.49,3.14-1.26.36-1.54-1.01-2.28-2.14-2.88-3.74-1.97-7.68-3.46-11.87-4.1Z"/>
      <path class="cls-5" d="m615.21,806.52v3.6H-5.75v-3.69c6.64-.3,13.34-.58,20.07-.82,13.91-.58,28.01-1.09,42.26-1.58-1.12-5.24-2.31-10.49-3.55-15.67-1.61-6.79-3.27-13.55-5.82-20.07-.42-1.09-.85-2.18-1.33-3.24-2.43-5.52-5.64-10.52-9.28-15.19-1.15-1.55-2.36-3.03-3.64-4.52-1.6-1.88-3.24-3.73-4.91-5.58-3.61-3.97-7.33-7.94-11.03-11.85-.61-.64-1.22-1.27-1.82-1.91-.3-.3-.61-.64-.88-.97-.46-.48-.88-.97-1.3-1.45-2.04-2.37-3.76-4.83-5.28-7.37-1.42-2.43-2.64-4.91-3.64-7.46-1.06-2.7-1.91-5.43-2.51-8.21-1.58-6.89-1.91-14.16-1.4-21.68.12-1.7.21-3.37.33-5.06.46-6.61.88-13.22,1.4-19.83.57-7.55,1.27-15.1,2.15-22.62,1.31-11.21,3.12-22.34,5.25-33.4.09-.46.15-.88.24-1.34.67-3.48,1.15-6.94,1.36-10.46.19-1.94.25-3.88.22-5.82,0-1.76-.03-3.51-.07-5.24-.03-6.55-.09-13.07-.18-19.59-.06-2.09-.06-4.15-.12-6.24,0-1.33-.24-2.67-.42-4.03-.12-.67-.21-1.34-.31-2-.15-1.58-.06-2.85.4-3.82.36-.82.94-1.43,1.82-1.82.39-.24.88-.4,1.39-.52.21-.06.43-.09.67-.12.06-.03.12-.03.18-.03.85-.12,1.49-.3,2-.61,1.15-.6,1.58-1.66,1.79-3.18.09-.73.15-1.48.33-2.18,1-4.28,2.85-5.43,7.1-4.25.94.25,1.66.85,2.21-.39.24-.58.55-1.12.91-1.58.52-.63,1.12-1.09,1.88-1.3.55-.15,1.21-.18,1.94,0,.21.06.42.09.61.18,1.63.61,2.27,2.03,2.69,3.61.13.42.22.85.31,1.27.12.55.33,1.06.45,1.49.37.39.73.39,1,.03.52-.67,1.03-1.24,1.64-1.61.85-.54,1.82-.7,3.06-.12.94.43,1.49,1.06,1.79,1.85v.03c.3.7.43,1.49.43,2.3.06,3.79.12,7.64-.25,11.43h0c-.06.8-.15,1.61-.27,2.4-.64,4-1.03,8-.46,12.31,2.25-.31,2.79-2.13,3.89-3.19.54-.54,1.09-1.12,1.63-1.63.79-.73,1.64-1.4,2.7-1.76.33-.12.67-.18.97-.24,2.27-.34,3.97,1.21,3.58,3.75-.34,1.98-1.12,3.92-1.91,5.77-1.7,3.94-3.58,7.79-5.25,11.7-.18.51-.39,1-.6,1.48-1.28,3.25-2.85,6.31-4.79,9.13-1.06,1.6-2.25,3.09-3.58,4.51-1.15,1.25-2.03,2.55-2.73,3.95-1.21,2.45-1.82,5.15-2.06,8.09-.82,9.46-.7,18.92-.3,28.31.21,5.31.51,10.59.78,15.86.19,3.36.37,6.76.49,10.13.06,1.48.33,2.94.24,4.42-.12,2.55,0,5,.37,7.34v.03c1.12,7.76,4.51,14.64,9.54,20.98.4.51.85,1.03,1.28,1.54.67.82,1.36,1.61,2.06,2.4,2.88,3.21,5.82,6.27,9.03,9.12l.03.03c2.49,2.22,5.1,4.31,7.89,6.22,4.97,3.39,10.49,5.36,16.25,6.97.21.06.45.09.66.15,1.25.21,2.15-.03,2.79-.79.43-.48.73-1.18.91-2.09,1.85-9.09,1.52-17.55-5.39-24.86-.07-.09-.13-.15-.19-.21-1.66-1.79-3.3-3.61-4.82-5.52-2.42-2.91-4.67-5.91-6.82-8.97-8.09-11.58-10.12-24.4-6.85-38.08,1.97-8.27,6.61-14.37,13.76-18.31,1.01-.57,2.1-1.09,3.22-1.54,1.18-.52,2.42-.94,3.64-1.37.87-.3,1.72-.57,2.6-.85h.03c7.01-2.12,14.22-3.6,20.59-7.88,1.63-1.09,3.45-1.88,5.36-2.48,3.37-1.04,7.04-1.46,10.58-1.82,8.55-.85,11.67,2.48,10.16,10.76,1.58.54,2.76-.82,4.21-.94,3.91-.33,6.37,2.45,5.31,6.24-.7,2.55-2.09,4.76-3.67,6.79-1.7,2.19-1.79,4.22-.55,6.67,2.01,3.98,3.19,8.28,3.98,12.62.12.54.21,1.12.3,1.66.57,3.55,1.76,6.76,4.12,9.55,3.79,4.43,4.4,9.28,1.34,14.31-1.67,2.7-1.76,5.55-1.61,8.55.58,12.01-1.27,14.64-12.82,18.55-1.61.52-3.22,1-4.76,1.55-.22.06-.43.15-.64.24-1.03.46-1.91,1.06-2.58,1.82-1.94,2.09-2.3,5.12-.79,8.1.76,1.51,2.01,2.12,3.58,2.18.64.03,1.21.03,1.82,0,1.97-.06,3.94-.34,5.88-.88,2.7-.85,5.31-1.85,7.79-3.03,6.88-3.25,12.8-7.85,17.65-14.01,6.58-8.3,11.55-17.7,16.73-26.92.61-1.12,1.21-2.21,1.85-3.3,12.13-21.19,24.13-42.45,36.23-63.64,1.54-2.72,3.45-5.28,1.92-8.43h0s-.01-.02-.01-.02c-.19-.37-.43-.76-.7-1.16-.91-1.21-.12-2.85.33-4.27,1.52-5.12,4.64-9.19,8.73-12.55,1.13-.94,2.49-1.7,3.43-2.79.55-.64.94-1.27,1.09-1.88.64-1.91-.36-3.67-2.76-4.58-1.54-.6-3.21-.94-4.79-1.39-1.82-.55-3.64-1.28-4.36-3.16-1.06-2.63-2.73-2.69-4.85-2.03-.19.09-.37.16-.55.22-2.7,1.03-5.21.63-6.76-2.03-1.21-2.1-3.03-2.34-5.15-2.52-6.4-.58-8.22-2.09-9.25-7.94-.06-.4-.12-.82-.18-1.28,0-.06-.03-.11-.03-.17h0c-1.21-8.83.3-17.59.55-26.38.09-3.52,2.15-5.95,5.66-6.61,3.55-.67,6.79-1.49,8.79-4.97.37-.7,1-1.19,1.76-1.46.7-.24,1.46-.3,2.16-.12,8.57,2.21,17,0,25.4-.82,7.18-.7,14.34-1.64,21.43-2.79.01,0,.03,0,.04-.01,18.64-2.97,36.96-7.48,54.96-13.39,2.06-.66,4.12-1.36,6.18-2.06,10.34-3.52,20.53-7.34,30.29-12.13,2.06-1,4.06-2.06,6.06-3.12,3.24-1.76,6.43-3.67,9.55-5.7,1.09-.73,2.21-1.45,3.3-2.21,3.46-2.43,4.46-1.94,4.52,2.24.12,10.37.15,20.74.09,31.08v4.63c-.06,23.11.12,46.21-.09,69.31-.03,5.09-.09,10.21-.21,15.31-.03,2.06-.06,4.14-.12,6.2v.53c-.06,2.69,1.18,6.27-1.22,7.88-2.66,1.73-4.85-1.67-7.15-2.88-3.85-2.06-7.76-4.06-11.7-5.94-8.07-3.91-16.28-7.43-24.71-10.52-23.49-8.67-47.75-14.68-72.27-19.59-.31-.06-.7.12-1.46.28,2.46,5.7,2.16,6.33-3.57,7.88-1.01.27-2.28.03-2.89,1.3.43,1.61,1.95,1.46,3.07,1.82,2.48.79,4.85,1.85,7,3.3,4.09,2.7,4.49,4.61,1.73,8.71-.06.09-.12.18-.18.27-.52.76-1.4,1.39-1.07,2.39,1.19,3.67.64,6.88-2.06,9.76-.81.85-.54,2.1-.24,3.19.39,1.42.49,2.73.24,3.91h0c-.33,1.86-1.48,3.39-3.6,4.55-2.22,1.21-2.73,3.24-2.94,5.57-.61,6.64-1.31,13.25-2.13,19.83-.45,3.7-1,4-4.57,3.82-10.22-.55-10.19-.55-10.16-10.94,0-3.43.09-6.89.21-10.4-2.79,1.82-3.48,4.73-4.52,7.36-6.97,18.1-13.36,36.44-18.91,55.06-.67,2.27-1.37,4.55-2.03,6.82-4.13,13.61-8.31,27.19-12.22,40.86-2.21,7.67-4.3,15.41-6.25,23.17-3.57,14.31-4.97,28.74-2.82,43.35.07.57.16,1.15.25,1.73.33,2.12.85,4.24,1.36,6.73,2.61-1.03,3.22-3.1,4.19-4.73.39-.67.75-1.31,1.15-1.97,5.09-8.77,10.09-17.62,15.25-26.35,3.21-5.43,6.82-10.55,10.7-15.55,6.73-8.73,15.79-12.4,26.52-12.82,4.58-.22,9.19-.4,13.77-.61,3.18-.15,6.33-.3,9.52-.46,1.94-.09,3.3-.24,4.3-.6,2.03-.73,2.43-2.34,2.64-6.31.06-1.48.06-2.94.06-4.42,0-.4,0-.73-.06-1.06-.27-2.22-1.64-3.49-4.12-3.76-.22-.03-.4-.09-.58-.09-6.97-.34-11.03-3.58-13.67-8.52-1.12-2-2-4.31-2.73-6.79-3.79-12.95-2.24-25.62.51-38.35.82-3.82,1.82-7.49-.94-11.07-1.18-1.51-.91-3.55.04-5.27.81-1.46,1.63-2.94,2.72-4.19,8.76-10.06,19.92-15.03,33.23-15.19,4.79-.06,9.22,1.13,12.88,4.28,2.1,1.82,4.43,2.49,7.13,2.55,2.18.03,4.42.39,6.58.87,11.24,2.52,16.43,8.58,17.06,20.13.25,4.22-.09,8.25-.9,12.1-.13.64-.25,1.24-.4,1.85,1.7,6.03,3.18,12.79,4.12,20.25.7,5.67,1,11.04,1.03,16.07.07,3.61-.03,7.03-.24,10.25,5.76-4.07,11.58-8.13,17.34-12.25,1.76-1.28,3.49-2.58,5.19-3.91l.03-.03c2.09-1.64,4.15-3.25,6.27-4.79,11.04-8.07,19.37-18.28,24.62-30.87,2.09-5.06,4.18-10.12,6.21-15.18,2.52-6.22,4.97-12.43,7.37-18.68.09-.21.18-.42.27-.66,5.55-14.5,10.73-29.11,15.34-43.93.09-.37.18-.73.31-1.09,1.63-5.13,2.54-10.13,1.63-15.16h0c-.42-2.25-1.21-4.49-2.48-6.73-2.16-3.85-3.25-8.28-4.76-12.43-.49-1.4-.97-2.82-1.22-4.28-.3-2.09-.03-4.24,2.28-5.09,2.18-.76,3.42.91,4.48,2.49,1.7,2.6,3.28,5.3,5.01,8.09,2.09-.79,2.12-2.61,2.48-4.06,1.88-7.37,3.61-14.76,5.43-22.1.24-1.03.51-2.03.82-3.03.51-2.03,1.12-4.03,1.73-6.04.48-1.6,1.27-3.09,2.48-4.27,1.37-1.33,2.85-2.61,4.91-2,1.64.51,2.19,1.85,2.37,3.27.06.43.09.85.09,1.28.03,3.3-.33,6.64.24,10.21.7-2.06,1.33-4.15,2.12-6.18,1.09-2.73,2.13-5.52,3.52-8.13,1.61-3,3.97-4.06,6.28-3.27,2.94,1.03,3.06,3.52,2.75,5.94-.3,2.58-.93,5.1-1.51,7.61-.34,1.55-.94,3.09-.24,4.85,1.97-.82,2.24-2.64,3.21-3.91,1-1.3,1.88-2.76,2.97-4,1.24-1.49,2.82-2.49,4.85-1.58,2.03.94,2.52,2.7,2.09,4.64-.51,2.37-1.24,4.64-1.91,6.94-1.3,4.37-3.09,8.61-3.82,13.31,2.28.15,2.79-1.45,3.67-2.45,1.24-1.43,2.52-2.73,4.37-3.28,1.36-.39,2.57-.15,3.6.82,1.03,1.03,1.19,2.27.67,3.58-.21.51-.42,1-.73,1.45,0,.01-.01.02-.01.03-.09.17-.18.35-.29.49-8.28,11.79-13.61,25.46-23.43,36.29-3.16,3.51-4.58,7.97-5.61,12.55-1.55,6.97-3.16,13.94-4.76,20.92-2.55,11.03-5.06,22.1-7.4,33.19-1.36,6.61-2.97,13.13-4.82,19.55-5.94,21.1-14.28,41.29-25.22,60.61-8,14.15-15.68,28.52-23.04,43.04-1.12,2.13-2.18,4.28-3.28,6.43-2.36,4.76-3.66,9.58-4.03,14.73v.03c-.06.94-.12,1.88-.12,2.85-.03,1.55-.03,3.1-.03,4.64,0,.97,0,1.97.03,2.91h.55c8.15.09,16.25.19,24.31.31.85-4.91,1.76-9.8,2.76-14.68,1.6-8.18,3.45-16.31,5.49-24.43.45-1.79.9-3.61,1.39-5.4,1.73-6.61,4-13.03,6.16-19.52,6.79-20.62,21.37-31.1,42.56-33.56,5.97-.67,11.97-1.39,17.95-2.4,3.15-.54,6.3-1.15,9.45-1.9,1.79-.43,3.61-.82,5.34-1.46,6.27-2.21,9.31-8.46,7.31-14.73-.37-1.19-1.04-1.97-2.22-2.25-.54-.12-1.09-.18-1.64-.24-8.09-.76-10.61-1.45-11.45-12.4-.43-5.18-.49-10.31-.1-15.37,0-.09,0-.15.03-.24.25-3.03.67-6.06,1.25-9.04,1.42-6.97,3.97-13.76,8-20.22,1.3-2.12,1.58-3.57-.51-5.7-3.7-3.78-3.13-7.45,1.48-10.61,8.46-5.76,18.01-8.48,28.04-9.85,3.7-.48,7.46-.63,11.19-.51,1.06,0,2.12.06,3.18.12h.18c1.43.09,2.85.21,4.25.36,6.43.7,12.06,2.91,16.67,6.28,1.49,1.06,2.85,2.24,4.07,3.51,2.66,2.73,4.79,5.95,6.3,9.49,2.49,5.82,3.31,12.58,1.97,19.68-.33,1.79-.76,3.54-1.3,5.24-.64,2.24-1.46,4.4-2.37,6.49-2.76,6.18-6.51,11.85-10.76,17.25-1.45,1.88-2.88,3.76-4.52,5.46-.97,1.03-2,1.97-3.15,2.82-.39.27-.79.54-1.21.81-2.67,1.64-5.25,3.55-8.7,2.88-.37-.06-.67-.09-.94-.06-1.28.09-1.85,1.09-2.12,2.4-1.13,5.85-1.52,11.76-.22,17.61.46,1.94,1.37,3.58,2.64,5,0,.03.03.06.06.09,1.24,1.43,2.82,2.64,4.52,3.7,4.55,2.82,9.55,4.76,14.43,6.88,1.21.55,2.39,1.1,3.61,1.67.33.15.66.31.97.46,1.36.6,2.76,1.18,4.09,1.79,1.09.51,2.15,1.03,3.18,1.57,8.34,4.43,14.55,10.46,18.62,18.19,1.51,2.85,2.76,5.97,3.66,9.31.43,1.54.79,3.15,1.1,4.82.48,2.76.94,5.55,1.36,8.34.91,5.82,1.58,11.64,2.06,17.46.82,10.03,1.61,20.1,2.09,30.16,5.92.24,11.83.49,17.68.76Z"/>
    </g>
  </g>
</svg>