<?xml version="1.0" encoding="UTF-8"?>
<svg id="Layer_1" data-name="Layer 1" xmlns="http://www.w3.org/2000/svg" viewBox="0 0 364.01 218.34">
  <defs>
    <style>
      .cls-1 {
        fill: #fff;
      }

      .cls-2 {
        fill: #50039d;
      }

      .cls-3 {
        fill: #f7bf16;
      }
    </style>
  </defs>
  <path class="cls-2" d="m363.04,174.07c-1.07-4.39-3.12-9.56-7.01-14.48,3.38-3.55,5.15-8.47,4.92-13.95-.17-4.03-1.4-8.11-3.44-11.48-4.01-6.63-10.32-11.11-18.26-12.94-3.37-.78-6.74-1.17-10.03-1.17-.32,0-.64.01-.96.02.98-4.97,1.39-9.52,1.22-13.79-.49-12.17-1.36-24.41-2.2-36.25l-.33-4.66c-.23-3.23-.62-8.63-3.27-13.84-2.91-5.71-10.01-11.92-18.7-12.04-.08,0-.18,0-.26,0-8.41,0-14.36,5.69-17.15,9.08-.19.23-.36.46-.54.69l-.1.04c.26-1.32.47-2.65.63-4,1.19-10.25-.83-20.25-5.68-28.15C272.07,1.19,254.81,0,229.6,0c-11.37,0-26.23.38-45.05.87-5.24.13-10.82.28-16.77.42l-3.37.08c-23.56.58-40.58.99-53.8,3.26-10.98,1.89-26.5,6.12-34.5,21.07-1.33,2.49-3.43,7.11-4.31,12.83-.67-.06-1.35-.11-2.02-.11-9.89,0-18.54,6.77-21.52,16.84-.58,1.96-1.05,3.98-1.39,6.02-.51-.76-1.02-1.51-1.52-2.25-2.41-3.54-5.51-6.65-8.95-8.96-3.82-2.58-8.17-3.94-12.6-3.94-.16,0-.32,0-.47,0-2.89.06-5.7.7-8.36,1.88-6.28,2.81-10.94,8.3-13.1,15.46-.88,2.9-1.39,5.77-1.53,8.52-.87,17.9,0,36.88,2.74,59.72.42,3.49,1.59,7.12,3.4,10.53,2.54,4.73,6.39,8.16,10.88,9.84-2.91,2.34-5.35,5.38-7.07,8.97-2.02,4.23-2.95,8.55-3.64,12.59-.93,5.39.56,10.25,1.97,13.36,3.89,8.62,12.73,14.18,22.52,14.18,1.03,0,2.04-.06,3.05-.19,2.27,1.11,4.81,1.74,7.49,1.77.07,0,.17,0,.24,0,3.63,0,6.97-1.07,9.76-2.94.32.1.65.2.97.29,1.04,2.12,2.43,4.09,4.18,5.81,4.09,4.02,8.77,6.93,13.56,8.42,3.65,1.13,7.38,1.71,11.07,1.71,6.67,0,13.13-1.88,18.69-5.45.74-.48,1.46-.99,2.16-1.51,7.46,5.78,16.81,9.23,26.96,9.23s19.91-3.61,27.45-9.62c3.28,2.53,7.22,3.98,11.37,4.08.03,0,.42,0,.42,0,5.5,0,10.63-2.31,14.5-6.44,3.37,3.17,7.58,5.35,12.42,6.33,3.27.66,6.55,1,9.75,1h0c6.37,0,12.48-1.33,18.18-3.92,2.63,1.46,5.58,2.26,8.64,2.26.67,0,1.34-.04,2-.11,5.57-.63,10.45-3.84,13.46-8.69.49.33,1,.66,1.51.97,4.58,2.77,9.21,4.17,13.77,4.17h0c3.43,0,6.72-.81,9.65-2.33,1.75.79,3.62,1.4,5.6,1.8,3.27.66,6.55,1,9.75,1h0c6.12,0,11.99-1.22,17.48-3.6,5.61,4.71,12.2,7.26,18.97,7.26.39,0,.79,0,1.19-.03,7.2-.28,13.38-1.33,18.91-3.22,14.86-5.09,22.58-19.56,18.78-35.19Z"/>
  <g>
    <g>
      <g>
        <path class="cls-3" d="m77.42,67.96l.05,8.65c.08,13.39.17,27.24.06,40.85-.06,7.13-1.82,12.29-4.97,14.52-3.14,2.23-7.48,1.61-12.58-1.77-5.3-3.52-9.85-9.22-12.81-13.2-3.53-4.75-6.73-10.04-9.83-15.16-1.28-2.11-2.56-4.23-3.87-6.31l-.4-.66c-.66-1.1-1.42-2.35-2.7-3.47l-1.55-1.35.08,3.44c.02.78.05,1.57.04,2.35l-.05,6.91c-.06,8.69-.12,17.68-.26,26.52-.03,1.52-.38,3.26-.99,4.91-.77,2.06-2.06,3.32-3.53,3.44-1.4.15-2.86-.88-3.87-2.76-.88-1.66-1.47-3.43-1.66-5-2.63-21.95-3.47-40.09-2.65-57.11.07-1.47.37-3.06.87-4.74.84-2.76,2.44-4.79,4.53-5.72.75-.33,1.53-.51,2.32-.53,1.34-.03,2.7.4,3.98,1.26,1.8,1.21,3.5,2.92,4.78,4.81,3.02,4.43,6.01,9.04,8.89,13.5,1.63,2.52,3.26,5.04,4.91,7.55,2.87,4.36,5.76,8.7,8.66,13.04l4.42,6.64,2.23-1.12.05-1.92c.02-.84.04-1.67.05-2.51.01-3.26.02-6.53.02-9.79.01-7.99.02-16.24.17-24.35.06-3.03.55-6.18,1.43-9.13,1.12-3.78,4.06-6.04,7.33-5.61,3.05.4,5.5,3.21,6.25,7.17.39,2.09.6,4.33.6,6.67Z"/>
        <path class="cls-3" d="m118.98,122.35c-3.58,1.49-7.3-.17-10.28-4.59-.27-.4-.58-.78-1.01-1.35-.89.64-1.62,1.32-2.48,1.74-2.5,1.22-4.94,2.76-7.6,3.4-9.98,2.43-18.1-4.62-17.32-14.81.84-10.95,10.88-22.27,21.23-24.07,5.9-1.02,10.53,1.83,14.79,5.12,1.41,1.09,1.93,3.64,2.36,5.62,1.32,6.14,2.28,12.36,3.61,18.5,1.15,5.3.13,8.99-3.3,10.42Zm-14.79-28.85c-5.89,2.45-8.97,6.91-10.89,12.33-.32.91-.3,2.71.17,2.96.88.46,2.31.4,3.31.01,5.37-2.11,8.56-8.54,7.42-15.3Z"/>
        <path class="cls-3" d="m144.26,109.54c3.03-.18,6.07-.52,9.1-.46,1.09.02,2.85.83,3.06,1.61.28,1.06-.24,2.94-1.09,3.61-5.57,4.39-11.76,7.09-19.08,5.49-6.92-1.51-11.59-7.26-11.78-14.36-.27-9.79,5.35-18.96,13.86-22.64,3.55-1.53,7.07-1.73,10.47.4,3.16,1.99,5.37,6.16,3.99,9.45-.83,1.98-1.6,1.47-2.33,1.85-1.22.65-2.33-.13-2.89-.91-2.11-2.96-3.41-3.97-6.32-1.71-4.08,3.17-5.65,7.6-5.77,12.57-.07,2.74,1.62,4.57,4.37,5,1.44.22,2.94.04,4.41.04v.05Z"/>
        <path class="cls-3" d="m172.64,115.37c-.06,1.87-.24,3.76-.59,5.61-.92,4.89-3.67,7.74-7.06,7.49-3.32-.24-6.27-3.32-5.84-8.07.83-9.12,2.43-18.19,4.01-27.23.44-2.53,2.54-4.17,5.37-3.84,2.85.33,4.18,2.4,4.3,5.02.18,4.18-.1,18.2-.19,21.02Zm-11.98-39.85c.01-3.26,2.52-5.8,5.71-5.81,3.11-.01,5.54,2.47,5.49,5.6-.06,3.35-2.81,6.19-5.89,6.08-2.98-.11-5.32-2.7-5.3-5.87Z"/>
        <path class="cls-3" d="m213.77,101.97c-.76,5.42-2.86,10.21-6.83,14.08-3.28,3.19-7.17,4.75-11.85,4.67-3.15-.7-6.4-1.12-9.44-2.16-6.03-2.07-8.88-7.02-7.96-13.34,1.09-7.45,5.15-12.95,11.51-16.79,2.75-1.66,5.7-2.03,8.85-1.15,1.72.48,3.51.77,5.28,1.02,6.89.98,11.38,6.81,10.43,13.67Zm-14.03-3.34c-4.24-2.95-4.8-2.91-7.72,1.38-.25.37-.5.75-.72,1.14-2.96,5.25-2.06,6.93,3.88,7.26,3.01.16,4.47-1.26,5.94-5.43.67-1.91.31-3.17-1.38-4.35Z"/>
        <path class="cls-3" d="m249.55,116.07c-.44,3.94-2.59,6.26-4.89,6.44-2.42.19-4.82-1.86-5.53-5.81-.83-4.58-1.05-9.37-1.55-14.07-.18-1.7-.39-3.4-.68-5.93-1.01,1.23-1.74,1.87-2.25,2.77-3.09,5.52-5.79,11.31-6.96,18.3-.84,5.01-3.48,7.76-6.56,7.27-3.09-.49-5.49-3.96-5.4-9,.16-9.04.65-18.08,1.17-27.1.19-3.22,1.03-6.47,3.87-6.61,2.63-.13,3.62,2.73,4.28,5.79.12.54.3,1.05.54,1.9,1.67-2.01,3.02-3.93,4.56-5.45,5.38-5.29,11.5-4.16,15.41,3.23,4.47,8.44,5.09,18.25,3.98,28.28Z"/>
        <path class="cls-3" d="m288.12,121.45c-2.97,1.52-6.11-.09-8.65-4.43-.23-.4-.5-.77-.86-1.32-.73.64-1.34,1.33-2.05,1.75-2.07,1.23-4.1,2.79-6.31,3.45-8.32,2.52-15.19-4.38-14.67-14.48.56-10.85,8.81-22.18,17.44-24.07,4.92-1.08,8.83,1.7,12.43,4.91,1.19,1.06,1.66,3.58,2.05,5.54,1.18,6.06,2.06,12.21,3.26,18.28,1.03,5.24.23,8.9-2.62,10.36Zm-12.74-28.41c-4.9,2.49-7.41,6.94-8.95,12.33-.26.9-.22,2.69.18,2.93.74.45,1.94.37,2.76-.02,4.46-2.15,7.04-8.55,6.01-15.23Z"/>
        <path class="cls-3" d="m313.87,106.91c.18,4.48-.59,9.12-1.68,13.5-.99,4-4.18,6.03-7.4,5.92-3.22-.11-6.05-2.41-7.14-6.34-.68-2.46-1.01-5.07-1.08-7.63-.15-5.98.65-38.58,1.58-48.86.16-1.72.46-3.75,1.48-4.99,1.29-1.56,3.39-3.41,5.12-3.39,1.74.02,4.15,1.84,5,3.51,1.17,2.3,1.41,5.18,1.6,7.85.95,13.47,1.97,26.94,2.51,40.42Z"/>
      </g>
      <g>
        <path class="cls-1" d="m44.2,147.69c-.04,12.08-.15,24.16-.24,36.24,0,.42,0,.84-.06,1.25-.2,1.2-.84,1.98-2.01,1.97-1.17-.02-1.82-.81-1.98-2.01-.14-1.06-.18-2.13-.28-3.48-1.43.98-2.62,1.9-3.89,2.66-4.42,2.67-10.79.87-12.87-3.73-.58-1.29-1.04-2.94-.81-4.28.5-2.9,1.1-5.91,2.34-8.5,2.96-6.18,10.23-7.27,14.99-2.53.19.19.39.38.8.79.24-4.98.41-9.64.7-14.29.1-1.54.34-3.1.77-4.56.18-.61,1.05-.99,1.6-1.47.33.65.95,1.3.95,1.95Zm-5.66,24.78c-.02-.12-.03-.24-.06-.35-.68-3.15-2.27-4.67-5.26-5.08-2.45-.33-4.22.78-5.49,3.64-.54,1.22-.95,2.55-1.19,3.88-.77,4.25.63,6.03,4.77,6.11,2.05.21,3.46-1.4,5.06-2.53,2.85-2.03,2.84-2.05,2.17-5.68Z"/>
        <path class="cls-1" d="m52.94,173c-.59,4.68,2.87,8.32,7.42,7.83,1.37-.15,2.74-.49,4.1-.41.73.04,1.88.68,2.02,1.26.14.59-.54,1.77-1.16,2.12-3.68,2.06-7.52,2.22-11.24.15-3.64-2.03-5.52-5.34-5.61-9.56-.1-4.65,1.3-8.87,4.05-12.57,2.47-3.33,5.95-4.14,9.6-2.36,3.51,1.71,5.37,5.65,4.46,9.45-.58,2.43-2.54,3.78-5.76,3.86-2.54.07-5.08.05-7.62.07-.05,0-.09.06-.25.16Zm.43-3.64c2.71-.1,5.23-.13,7.74-.33.61-.05,1.45-.55,1.7-1.09.6-1.24-.35-3.53-1.6-4.4-1.71-1.18-3.56-1.24-4.8-.03-1.6,1.57-2.38,3.6-3.04,5.84Z"/>
      </g>
      <g>
        <g>
          <path class="cls-1" d="m139.8,127.94c-1.65-1.08-3.75-.69-5.09,1.24-1.94,2.81-3.84,5.67-5.47,8.66-.48.88-.64,1.71-.51,2.41.24,1.32,1.5,2.21,3.63,2.23.62-.39,2.03-.9,2.85-1.88.05-.06.1-.12.14-.18,1.88-2.27,3.56-4.72,5.2-7.16,1.39-2.07,1.01-4.18-.76-5.33Z"/>
          <path class="cls-1" d="m189.41,145.03c-1.71-1.66-3.99-1.26-5.54.98-1.37,1.99-2.53,4.08-3.43,6.21-1.8,4.28-3.55,8.71-5.24,12.99-.64,1.62-1.28,3.23-1.92,4.84-.44,1.13-.89,2.26-1.39,3.53l-1.47,3.75-.49-1.6c-.54-1.75-1.04-3.47-1.52-5.15-1.06-3.66-2.05-7.11-3.33-10.34-2.12-5.37-4.7-10.48-7.37-15.68-.7-1.35-1.68-2.12-2.74-2.2-.55-.04-1.11.1-1.67.45-1.54.95-2.27,2.96-1.99,5.5.12,1.13.34,2.24.61,3.35,5.59,5.71,9.03,13.53,9.03,22.17,0,2.28-.24,4.5-.7,6.64.83,3.06,1.66,6.12,2.53,9.16.6,2.1,1.26,3.75,2.02,5.04.93,1.58,2.21,2.45,3.62,2.48,1.45.03,2.84-.85,3.93-2.46.56-.83,1.08-1.85,1.69-3.31,4.92-11.83,9.82-23.67,14.71-35.51l1.49-3.62c1.15-2.78.82-5.62-.85-7.24Z"/>
          <path class="cls-1" d="m217.44,184.57c-.93.06-1.86.32-2.85.59-.76.21-1.54.43-2.34.56-3.14.49-5.92.81-8.5.99-.61.04-1.22-.41-1.53-.68-.3-.26-.8-.79-.84-1.39-.12-1.94-.1-3.9-.08-5.8,0-.67.01-1.34.01-2.01v-.71l.71-.03c1.32-.07,2.62-.12,3.91-.18,3.16-.14,6.14-.27,9.14-.53,1.46-.13,3.06-.62,4.65-1.41,1.27-.63,2.74-1.87,2.57-4.18-.15-1.89-1.33-3.25-3.16-3.65-2.15-.47-4.61-.6-7.11-.4-2.02.17-4.03.57-6.16,1-.95.19-1.92.38-2.92.56l-.88.16v-3.39c0-1.8,0-3.5,0-5.22,0-1.77,0-2.65.63-3.24.61-.59,1.5-.55,3.25-.46l1.78.08c2.79.14,5.67.28,8.47.13,4.38-.24,7.35-2.79,7.24-6.21-.05-1.49-.7-2.89-1.83-3.92-1.31-1.2-3.14-1.84-5.19-1.84-.18,0-.35,0-.53.01-4.29.23-8.64.85-12.86,1.45l-2.97.42c-1.07.15-2.18.68-3.11,1.19-2.81,1.54-3.83,3.37-3.29,5.96.12.6,0,1.21-.09,1.75l-.06.31c-.33,1.97-.69,3.95-1.04,5.93-.73,4.1-1.49,8.35-2.09,12.54-.72,5.01-1.35,10.83.21,16.52,1.22,4.43,3.9,7.09,7.93,7.91,6.89,1.4,13.33.66,19.14-2.18,1.3-.64,2.55-1.58,3.54-2.64,1.62-1.77,2-3.6,1.14-5.43-1.07-2.3-3.26-2.66-4.9-2.55Z"/>
          <path class="cls-1" d="m268.37,154.7l-.17-5.78c-.04-1.57-.21-3.06-.52-4.45-.58-2.63-2.33-4.47-4.46-4.68-2.28-.23-4.29,1.33-5.02,3.88-.56,1.98-.85,4.1-.85,6.12.02,5.43.14,10.94.26,16.28.05,2.18.09,4.36.14,6.55,0,.56,0,1.12,0,1.67v1.29l-1.53.79-3.18-4.36c-2.08-2.85-4.16-5.69-6.22-8.56-1.19-1.65-2.36-3.31-3.53-4.96-2.07-2.93-4.22-5.96-6.39-8.87-.92-1.24-2.13-2.35-3.4-3.13-.91-.56-1.86-.82-2.79-.78-.55.03-1.08.16-1.6.39-1.44.66-2.52,2.05-3.06,3.9-.33,1.13-.51,2.2-.53,3.18-.31,11.39.55,23.5,2.72,38.12.16,1.05.59,2.22,1.23,3.32.73,1.23,1.76,1.9,2.74,1.77,1.02-.1,1.9-.96,2.4-2.36.4-1.11.62-2.28.61-3.3-.04-5.9-.14-11.91-.23-17.72l-.08-4.62c0-.53-.03-1.05-.07-1.57l-.11-2.3,1.1.87c.91.73,1.45,1.55,1.93,2.27l.29.44c.94,1.37,1.86,2.76,2.79,4.15,2.23,3.37,4.55,6.85,7.07,9.96,2.12,2.61,5.37,6.34,9.11,8.6,3.59,2.17,6.62,2.51,8.77.96,2.16-1.54,3.3-5.02,3.23-9.79-.13-9.09-.4-18.35-.67-27.3Z"/>
          <path class="cls-1" d="m300.01,179.72c-.93.06-1.86.32-2.84.59-.76.21-1.54.43-2.35.55-3.14.5-5.92.82-8.49.99-.62.05-1.22-.4-1.53-.68-.3-.26-.81-.78-.85-1.38-.12-1.94-.1-3.9-.08-5.8,0-.67.01-1.34.01-2.01v-.71l.71-.03c1.32-.07,2.62-.12,3.91-.18,3.16-.13,6.15-.26,9.15-.53,1.45-.13,3.06-.62,4.64-1.41,1.27-.63,2.74-1.87,2.57-4.18-.14-1.89-1.32-3.26-3.15-3.65-2.15-.47-4.61-.6-7.12-.4-2.02.17-4.03.57-6.16.99-.96.2-1.93.38-2.93.57l-.87.15v-3.38c0-1.8,0-3.51,0-5.22,0-1.77,0-2.65.63-3.24.62-.59,1.5-.55,3.25-.47l1.78.09c2.79.14,5.67.28,8.47.12,4.38-.23,7.35-2.79,7.24-6.21-.05-1.49-.7-2.89-1.84-3.92-1.31-1.21-3.14-1.85-5.19-1.85-.18,0-.35,0-.53.02-4.29.22-8.64.85-12.85,1.45l-2.98.42c-1.07.15-2.17.68-3.11,1.19-2.81,1.53-3.83,3.37-3.29,5.95.12.61.01,1.21-.09,1.75l-.06.31c-.33,1.97-.68,3.95-1.04,5.93-.74,4.1-1.49,8.34-2.1,12.53-.72,5.02-1.35,10.84.21,16.52,1.22,4.43,3.89,7.09,7.93,7.91,6.89,1.4,13.33.66,19.14-2.19,1.3-.63,2.55-1.57,3.53-2.64,1.62-1.77,2.01-3.6,1.15-5.43-1.08-2.31-3.27-2.67-4.9-2.55Z"/>
          <path class="cls-1" d="m347.86,177.77c-1.88-7.74-7.05-13.21-15.82-16.73-3.15-1.26-6.11-3.06-8.98-4.8l-1.82-1.1c-1.07-.64-1.67-1.55-1.66-2.54.01-1,.64-1.93,1.74-2.55,1.99-1.14,4.36-2.38,6.83-2.91,5.21-1.15,10.12.46,13.35,1.76,1.3.53,2.36.57,2.99.12.78-.55.9-1.78.86-2.72-.06-1.39-.5-2.9-1.2-4.04-1.8-2.98-4.63-4.93-8.4-5.8-8.49-1.96-16.19-.18-22.87,5.31-3.41,2.79-5.39,6.52-5.61,10.49-.21,4.05,1.43,8.06,4.61,11.29,4.55,4.61,9.5,7.69,15.15,9.39,2.81.85,5.61,2.1,7.05,5.5l.38.92-2.68.78c-3.29.95-6.31.11-9.22-.7-.72-.2-1.44-.4-2.16-.57-.82-.2-1.62-.29-2.4-.29-2.78,0-5.18,1.22-6.46,3.41-1.61,2.76-.96,6.4,1.64,9.28,2.42,2.67,6.42,5.84,11.54,5.61,5.7-.22,10.43-1,14.49-2.38,7.13-2.44,10.53-8.99,8.66-16.71Z"/>
        </g>
        <path class="cls-1" d="m113.98,140.4c-.5,2.47-2.89,4.07-5.37,3.58-2.63-.53-5.25-.84-7.84-.94.57,3.6.83,7.31,1.08,10.91.08,1.16.16,2.31.25,3.46-2.91,4.79-4.59,10.42-4.59,16.44,0,4.42.91,8.62,2.53,12.45-1.54,4.76-4.43,8.64-8.38,11.18-4.84,3.11-10.76,3.8-16.68,1.97-2.36-.74-4.93-2.38-7.23-4.64-2.31-2.27-2.06-5.69-.62-7.9,1.2-1.84,3.18-2.83,5.44-2.83.7,0,1.45.1,2.2.3.89.24,1.76.59,2.67.95.66.26,1.33.53,2.01.75,2.44.81,4.36.82,5.89.05,1.4-.72,2.44-2.1,3.09-4.12,1.39-4.35,2.05-8.32,1.95-11.8-.16-5.68-.71-11.43-1.24-16.99-.21-2.24-.42-4.48-.62-6.72-.03-.39-.09-.79-.15-1.18-.05-.35-.11-.71-.14-1.07-1.53.33-3.29.74-5.45,1.24-3.6.83-7.2,1.77-10.7,2.77-.42.12-.85.18-1.26.18-1.98,0-3.8-1.3-4.38-3.3-.7-2.42.7-4.95,3.11-5.65,3.65-1.05,7.41-2.03,11.16-2.9,5.94-1.38,9.21-2.14,13.3-2.5,5.33-.48,10.84-.16,16.37.94,2.47.49,4.07,2.89,3.58,5.36Z"/>
        <g>
          <path class="cls-3" d="m129.39,153.67c-11.35-.04-20.58,9.14-20.61,20.52-.04,11.36,9.14,20.58,20.52,20.62,11.36.04,20.58-9.14,20.61-20.52.03-11.37-9.13-20.57-20.52-20.62Zm-.11,35.99c-8.5-.04-15.4-7-15.36-15.5.04-8.5,7-15.38,15.51-15.35,8.46.03,15.36,6.99,15.34,15.47-.02,8.5-6.99,15.42-15.48,15.38Z"/>
          <path class="cls-1" d="m129.25,145.78c-15.73,0-28.48,12.74-28.48,28.47s12.75,28.46,28.48,28.46,28.47-12.75,28.47-28.46-12.75-28.47-28.47-28.47Zm.09,52.46c-13.22,0-23.98-10.76-24-23.98-.01-13.23,10.79-24.03,24.01-24.01,13.22.02,23.98,10.79,23.97,24.01,0,13.22-10.78,23.99-23.99,23.99Z"/>
          <path class="cls-1" d="m129.35,162.24c-6.64,0-11.99,5.33-12.01,11.96-.02,6.66,5.34,12.03,11.99,12.03,6.66,0,12.01-5.36,12.01-12.02,0-6.63-5.36-11.98-11.99-11.98Zm1.91,19.71c-1.09.02-1.89-.66-1.92-1.65-.03-1,.7-1.73,1.79-1.78,1.9-.09,3.26-1.46,3.35-3.36.05-1.09.76-1.82,1.77-1.79.99.02,1.67.81,1.66,1.91-.05,3.55-3.1,6.61-6.65,6.67Z"/>
        </g>
      </g>
    </g>
    <g>
      <path class="cls-1" d="m251.13,37.98c-.46-.27-1.02-.4-1.68-.41-.66,0-1.25.11-1.77.37-.52.25-.97.61-1.35,1.06-.37.45-.66.97-.85,1.56-.19.59-.29,1.21-.3,1.87,0,.61.11,1.16.36,1.63.25.48.6.85,1.06,1.12s1.02.4,1.68.41c.67,0,1.27-.11,1.78-.37s.96-.61,1.33-1.06c.37-.45.66-.97.85-1.56.19-.59.29-1.21.3-1.87,0-.63-.11-1.18-.36-1.65-.25-.47-.6-.84-1.06-1.1Z"/>
      <path class="cls-1" d="m228.79,41.21l2.22.03c.75.01,1.33-.17,1.75-.54.42-.37.63-.89.64-1.56,0-.58-.17-1-.52-1.26-.36-.26-.85-.39-1.47-.4l-1.81-.02-.8,3.75Z"/>
      <path class="cls-1" d="m268.56,25.35c-7.2-11.72-21.74-10.37-100.39-8.43-47.58,1.17-70.36,1.37-78.28,16.17-.83,1.55-4.81,9.45-1.68,16.82,6.53,15.42,36.17,9.82,96.11,13.78,50.93,3.36,69.24,10.03,80.54-3.01,7.83-9.03,10.07-24.96,3.7-35.33Zm-150.28,18.44l-.88,4.07-13.35-.18,3.43-16.02,13.05.17-.88,4.07-7.73-.1-.4,1.88,6.8.09-.83,3.89-6.8-.09-.45,2.1,8.05.11Zm17.04,4.31l-4.45-.06-4.51-7.53-1.59,7.45-5.28-.07,3.43-16.02,4.45.06,4.51,7.53,1.59-7.45,5.28.07-3.43,16.02Zm9.46-5.38c.27.48.65.85,1.14,1.12s1.07.4,1.73.41c.63,0,1.24-.13,1.85-.41.61-.28,1.19-.75,1.75-1.4l3.15,3.09c-.99,1.18-2.1,1.99-3.3,2.45-1.21.45-2.55.67-4.04.65-1.65-.02-3.09-.34-4.32-.96-1.23-.62-2.18-1.47-2.85-2.56-.67-1.09-.99-2.34-.97-3.76.02-1.41.28-2.7.8-3.87.51-1.17,1.23-2.18,2.14-3.02.91-.84,1.99-1.49,3.24-1.94,1.25-.45,2.61-.67,4.09-.65,1.54.02,2.91.31,4.1.88,1.19.57,2.06,1.37,2.63,2.42l-3.94,3c-.33-.6-.76-1.07-1.29-1.41-.53-.34-1.16-.51-1.9-.52-.64,0-1.23.1-1.76.33-.53.23-.99.56-1.38.99-.39.43-.69.94-.91,1.54-.22.59-.34,1.25-.35,1.97,0,.63.12,1.18.39,1.66Zm24.13,4.31c-1.48,1.23-3.46,1.84-5.92,1.8-1.67-.02-3.06-.36-4.16-1.01-1.11-.65-1.89-1.55-2.34-2.69-.45-1.15-.51-2.47-.19-3.98l1.88-8.81,5.41.07-1.86,8.72c-.24,1.13-.19,1.96.17,2.5.36.54.96.82,1.8.83.78.01,1.4-.23,1.86-.72s.82-1.34,1.08-2.54l1.86-8.72,5.32.07-1.93,9.04c-.51,2.39-1.5,4.21-2.99,5.44Zm18.09-2.33l-.88,4.07-13.35-.18,3.43-16.02,13.05.17-.88,4.07-7.73-.1-.4,1.88,6.8.09-.83,3.89-6.8-.09-.45,2.1,8.05.11Zm17.04,4.31l-4.45-.06-4.51-7.53-1.59,7.45-5.28-.07,3.43-16.02,4.45.06,4.51,7.53,1.59-7.45,5.28.07-3.43,16.02Zm11.52.15l-5.41-.07,2.52-11.83-4.7-.06.91-4.19,14.82.2-.9,4.19-4.7-.06-2.52,11.83Zm22.29-6.95c-.68,1-1.63,1.78-2.85,2.33-.17.07-.34.13-.52.19l2.62,4.72-5.62-.07-2.23-4.07-1.32-.02-.86,4.03-5.41-.07,3.43-16.02,7.2.1c2.13.03,3.76.51,4.91,1.45,1.15.94,1.71,2.25,1.69,3.91-.02,1.35-.37,2.52-1.05,3.52Zm19.38,2.15c-.51,1.16-1.23,2.17-2.14,3.01-.91.84-1.99,1.49-3.24,1.94-1.25.45-2.6.67-4.07.65-1.67-.02-3.1-.35-4.31-.98-1.21-.63-2.14-1.49-2.79-2.57-.65-1.09-.97-2.33-.95-3.74.02-1.42.28-2.72.8-3.88s1.23-2.17,2.14-3.01c.91-.84,1.99-1.49,3.24-1.94,1.25-.45,2.6-.67,4.07-.65,1.67.02,3.1.35,4.31.97,1.21.63,2.14,1.49,2.79,2.57.65,1.09.97,2.33.95,3.74-.02,1.42-.28,2.72-.8,3.88Z"/>
    </g>
  </g>
</svg>